<svg width="225" height="225" version="1.1" xmlns="http://www.w3.org/2000/svg" desc="Created with imagetracer.js version 1.2.6" ><path fill="rgb(214,252,78)" stroke="rgb(214,252,78)" stroke-width="1" opacity="1" d="M 0 2 L 15.5 2 L 16 5 L 0.5 5 L 0 2 Z " /><path fill="rgb(214,252,78)" stroke="rgb(214,252,78)" stroke-width="1" opacity="1" d="M 56.5 2 L 71.5 3 L 72.5 2 L 87.5 2 L 88.5 3 L 112 3.5 L 24.5 4 L 24.5 3 L 55.5 3 L 56.5 2 Z " /><path fill="rgb(214,252,78)" stroke="rgb(214,252,78)" stroke-width="1" opacity="1" d="M 144.5 2 L 191.5 2 L 192.5 3 L 224 3.5 L 136.5 4 L 136.5 3 Q 142.7 4.8 144.5 2 Z " /><path fill="rgb(214,252,78)" stroke="rgb(214,252,78)" stroke-width="1" opacity="1" d="M 0 7 L 136 7.5 L 40 8 L 40 15.5 L 40.5 16 L 87.5 16 L 88 16.5 L 88 23.5 L 88.5 24 L 135.5 24 L 136 24.5 L 136 31.5 L 136.5 32 L 191.5 32 L 192 32.5 L 192 39.5 L 192.5 40 L 224 40 L 224 104 L 176.5 104 L 176 103.5 L 176 96 L 160.5 96 L 157 98.5 L 156.5 97 L 155 97.5 L 156.5 88 Q 159 89 158 93.5 L 156.5 96 Q 160.9 97.5 160 94.5 L 159 90.5 L 160 85.5 L 158 82.5 L 160 79.5 L 159 76.5 L 160 72 L 158 72.5 L 158 74.5 Q 158.9 79.9 156.5 82 L 156 78.5 Q 158.2 77.3 157 72.5 L 159 70.5 L 158 68 Q 161 69.3 160 65.5 L 159 61.5 L 160.5 54 L 161 56 L 165 56 L 165 54.5 L 164.5 53 L 168 54 L 167 48 Q 164.3 46.9 165 49.5 L 164 49.5 L 165 46 Q 167.7 44.9 167 47.5 L 168 47.5 L 167 42.5 Q 169.3 41.3 166.5 40 Q 164.3 39.3 165 41.5 L 165 43.5 Q 162.3 45.8 162.5 51 L 162 45 L 164 44.5 L 162 43.5 Q 165.8 41.8 162.5 40 L 152 40.5 L 161 41.5 L 136.5 44 Q 135.2 41.8 134 44.5 L 133.5 47 L 132 43.5 Q 132.8 40.3 137.5 41 Q 139.5 43.8 144 43 L 143.5 40 L 131 40 L 131 43 Q 127.3 41.5 128 44.5 L 130.5 50 L 131 48 Q 135.5 46.5 134 51 L 131.5 50 L 131 52 Q 126.5 50.3 128 55.5 L 128 57.5 L 129.5 61 L 132 59.5 Q 132.8 61.8 130.5 61 L 130.5 62 L 132 62.5 L 129.5 64 L 129.5 62 L 128 62.5 L 128 73.5 L 129 73.5 L 129.5 72 L 130 73.5 L 126.5 91 L 124.5 88 L 122.5 95 L 122 90 Q 118.9 90.8 119.5 88 L 112 88 L 111.5 92 L 111 88.5 L 112 85.5 Q 108 83.5 112 81.5 L 111.5 76 L 110 76.5 L 109 74.5 L 111 73.5 L 110.5 75 L 112 74.5 L 112 64.5 L 110 64.5 Q 112.7 62.7 111 56.5 L 112.5 55 L 117 56 L 116.5 54 L 115 54.5 Q 117.8 53.4 117 50 L 114.5 51 L 115 49.5 Q 114.2 46.5 118 48 L 119.5 53 L 120 45.5 Q 116.2 44.2 117 40 Q 111.8 37.9 113 42.5 Q 111.8 45.3 110.5 43 L 108 42.5 L 112 42 L 111.5 40 L 80 40 L 80.5 42 L 82 41.5 L 81 46.5 L 83.5 51 L 85 50.5 Q 85.8 52.8 83.5 52 Q 82.3 54.3 81 51.5 L 80.5 50 L 80 55.5 L 82 61.5 L 80 61.5 L 80.5 66 L 82.5 63 L 83 64.5 L 81.5 68 L 80 67.5 Q 78.7 74.3 81 77.5 L 80 84 L 78 84 L 78 86 L 74 88 Q 72.5 84.2 75.5 85 L 74 82.5 L 73.5 80 L 24.5 80 L 24 79.5 L 24 72.5 L 23.5 72 L 0 72 L 0 7 Z M 119 41 L 118 43 L 120 44 L 119 41 Z M 75 80 L 75 82 L 77 81 L 75 80 Z " /><path fill="rgb(214,252,78)" stroke="rgb(214,252,78)" stroke-width="1" opacity="1" d="M 184.5 7 L 224 7.5 L 184.5 8 L 184.5 7 Z " /><path fill="rgb(214,252,78)" stroke="rgb(214,252,78)" stroke-width="1" opacity="1" d="M 87.5 41 Q 89.2 43.8 95.5 42 L 96.5 41 L 106.5 41 L 106.5 42 L 96 42.5 L 104 43.5 L 87 44 L 87.5 41 Z " /><path fill="rgb(214,252,78)" stroke="rgb(214,252,78)" stroke-width="1" opacity="1" d="M 85.5 42 L 86 45.5 L 84 46.5 L 85.5 42 Z " /><path fill="rgb(214,252,78)" stroke="rgb(214,252,78)" stroke-width="1" opacity="1" d="M 114.5 44 Q 116.8 43.3 116 45.5 L 114 46.5 L 114.5 44 Z " /><path fill="rgb(214,252,78)" stroke="rgb(214,252,78)" stroke-width="1" opacity="1" d="M 82.5 55 L 84 57.5 L 82.5 60 L 82.5 55 Z " /><path fill="rgb(214,252,78)" stroke="rgb(214,252,78)" stroke-width="1" opacity="1" d="M 129.5 65 L 130 67.5 L 129 67.5 L 129.5 65 Z " /><path fill="rgb(214,252,78)" stroke="rgb(214,252,78)" stroke-width="1" opacity="1" d="M 81.5 69 L 82 71.5 L 81 71.5 L 81.5 69 Z " /><path fill="rgb(214,252,78)" stroke="rgb(214,252,78)" stroke-width="1" opacity="1" d="M 156.5 83 L 155.5 85 L 156.5 83 Z " /><path fill="rgb(214,252,78)" stroke="rgb(214,252,78)" stroke-width="1" opacity="1" d="M 109.5 88 L 110 92.5 L 108.5 96 L 107.5 90 L 105.5 96 L 105 93.5 L 106 89 L 109.5 88 Z " /><path fill="rgb(214,252,78)" stroke="rgb(214,252,78)" stroke-width="1" opacity="1" d="M 120.5 94 L 121 96.5 L 120 96.5 L 120.5 94 Z " /><path fill="rgb(214,252,78)" stroke="rgb(214,252,78)" stroke-width="1" opacity="1" d="M 74.5 95 L 77 96.5 L 76.5 99 L 76 96 L 74.5 95 Z " /><path fill="rgb(214,252,78)" stroke="rgb(214,252,78)" stroke-width="1" opacity="1" d="M 114.5 97 L 117 97.5 L 114.5 98 L 114.5 97 Z " /><path fill="rgb(214,252,78)" stroke="rgb(214,252,78)" stroke-width="1" opacity="1" d="M 120.5 98 L 119.5 100 L 120.5 98 Z " /><path fill="rgb(214,252,78)" stroke="rgb(214,252,78)" stroke-width="1" opacity="1" d="M 112.5 99 L 115 104.5 L 113.5 105 Q 110.8 103.8 113 102.5 L 112.5 99 Z " /><path fill="rgb(214,252,78)" stroke="rgb(214,252,78)" stroke-width="1" opacity="1" d="M 117.5 99 L 118 101.5 L 116.5 103 L 116 100.5 L 117.5 99 Z " /><path fill="rgb(214,252,78)" stroke="rgb(214,252,78)" stroke-width="1" opacity="1" d="M 153.5 100 L 154 102.5 L 152 103.5 L 153.5 100 Z " /><path fill="rgb(214,252,78)" stroke="rgb(214,252,78)" stroke-width="1" opacity="1" d="M 75.5 104 L 75 105.5 L 74.5 109 L 74 105.5 L 75.5 104 Z " /><path fill="rgb(214,252,78)" stroke="rgb(214,252,78)" stroke-width="1" opacity="1" d="M 107.5 105 L 106.5 107 L 107.5 105 Z " /><path fill="rgb(214,252,78)" stroke="rgb(214,252,78)" stroke-width="1" opacity="1" d="M 111.5 105 L 112.5 107 L 111.5 105 Z " /><path fill="rgb(214,252,78)" stroke="rgb(214,252,78)" stroke-width="1" opacity="1" d="M 151.5 107 L 152 110.5 L 151 110.5 L 151.5 107 Z " /><path fill="rgb(214,252,78)" stroke="rgb(214,252,78)" stroke-width="1" opacity="1" d="M 150.5 112 L 151 114.5 L 150 114.5 L 150.5 112 Z " /><path fill="rgb(214,252,78)" stroke="rgb(214,252,78)" stroke-width="1" opacity="1" d="M 149.5 119 L 150 121.5 L 149 121.5 L 149.5 119 Z " /><path fill="rgb(214,252,78)" stroke="rgb(214,252,78)" stroke-width="1" opacity="1" d="M 117.5 126 L 120 127.5 L 118.5 128 L 117.5 126 Z " /><path fill="rgb(214,252,78)" stroke="rgb(214,252,78)" stroke-width="1" opacity="1" d="M 65.5 129 L 66 132.5 L 64 131.5 L 65.5 129 Z " /><path fill="rgb(214,252,78)" stroke="rgb(214,252,78)" stroke-width="1" opacity="1" d="M 117.5 129 L 118.5 131 L 120 130.5 L 118.5 133 L 117.5 129 Z " /><path fill="rgb(214,252,78)" stroke="rgb(214,252,78)" stroke-width="1" opacity="1" d="M 111.5 131 L 115 132.5 L 112.5 133 L 111.5 131 Z " /><path fill="rgb(214,252,78)" stroke="rgb(214,252,78)" stroke-width="1" opacity="1" d="M 148.5 133 L 149 136 L 146.5 137 L 146.5 134 L 148 134.5 L 148.5 133 Z " /><path fill="rgb(214,252,78)" stroke="rgb(214,252,78)" stroke-width="1" opacity="1" d="M 114.5 134 L 118 135.5 Q 119.3 139.7 114.5 138 L 114.5 137 Q 118.3 138 117 135 Q 113.7 135.8 114.5 134 Z " /><path fill="rgb(214,252,78)" stroke="rgb(214,252,78)" stroke-width="1" opacity="1" d="M 112 139 Q 115 138 114 141 Q 111 142 112 139 Z " /><path fill="rgb(214,252,78)" stroke="rgb(214,252,78)" stroke-width="1" opacity="1" d="M 149.5 140 L 150 142 L 148 141.5 L 149.5 140 Z " /><path fill="rgb(214,252,78)" stroke="rgb(214,252,78)" stroke-width="1" opacity="1" d="M 113.5 160 L 114 162.5 L 113 162.5 L 113.5 160 Z " /><path fill="rgb(214,252,78)" stroke="rgb(214,252,78)" stroke-width="1" opacity="1" d="M 95.5 167 L 95 168.5 L 94.5 170 L 94 168.5 L 95.5 167 Z " /><path fill="rgb(214,252,78)" stroke="rgb(214,252,78)" stroke-width="1" opacity="1" d="M 139.5 179 L 138.5 181 L 139.5 179 Z " /><path fill="rgb(86,114,60)" stroke="rgb(86,114,60)" stroke-width="1" opacity="1" d="M 88.5 45 L 112.5 45 L 113 46.5 L 111.5 46 L 88.5 46 L 87.5 47 L 88.5 45 Z " /><path fill="rgb(86,114,60)" stroke="rgb(86,114,60)" stroke-width="1" opacity="1" d="M 136.5 45 L 161 45.5 L 136.5 46 L 136.5 45 Z " /><path fill="rgb(86,114,60)" stroke="rgb(86,114,60)" stroke-width="1" opacity="1" d="M 124.5 98 L 123.5 100 L 124.5 98 Z " /><path fill="rgb(86,114,60)" stroke="rgb(86,114,60)" stroke-width="1" opacity="1" d="M 118.5 103 L 117.5 105 L 118.5 103 Z " /><path fill="rgb(86,114,60)" stroke="rgb(86,114,60)" stroke-width="1" opacity="1" d="M 113.5 107 L 112.5 109 L 113.5 107 Z " /><path fill="rgb(86,114,60)" stroke="rgb(86,114,60)" stroke-width="1" opacity="1" d="M 108.5 111 L 106.5 114 L 108.5 111 Z " /><path fill="rgb(86,114,60)" stroke="rgb(86,114,60)" stroke-width="1" opacity="1" d="M 102.5 116 L 101.5 118 L 102.5 116 Z " /><path fill="rgb(86,114,60)" stroke="rgb(86,114,60)" stroke-width="1" opacity="1" d="M 122.5 120 L 121.5 122 L 122.5 120 Z " /><path fill="rgb(86,114,60)" stroke="rgb(86,114,60)" stroke-width="1" opacity="1" d="M 117.5 124 L 116.5 126 L 117.5 124 Z " /><path fill="rgb(86,114,60)" stroke="rgb(86,114,60)" stroke-width="1" opacity="1" d="M 112.5 128 L 111.5 130 L 112.5 128 Z " /><path fill="rgb(86,114,60)" stroke="rgb(86,114,60)" stroke-width="1" opacity="1" d="M 106.5 133 L 105.5 135 L 106.5 133 Z " /><path fill="rgb(86,114,60)" stroke="rgb(86,114,60)" stroke-width="1" opacity="1" d="M 71.5 136 L 72 138.5 L 71 138.5 L 71.5 136 Z " /><path fill="rgb(86,114,60)" stroke="rgb(86,114,60)" stroke-width="1" opacity="1" d="M 100.5 138 L 99.5 140 L 100.5 138 Z " /><path fill="rgb(185,214,122)" stroke="rgb(185,214,122)" stroke-width="1" opacity="1" d="M 134.5 50 L 135 52.5 L 134 52.5 L 134.5 50 Z " /><path fill="rgb(185,214,122)" stroke="rgb(185,214,122)" stroke-width="1" opacity="1" d="M 132.5 61 L 133 63.5 L 132 63.5 L 132.5 61 Z " /><path fill="rgb(185,214,122)" stroke="rgb(185,214,122)" stroke-width="1" opacity="1" d="M 81.5 76 L 82 78.5 L 81 78.5 L 81.5 76 Z " /><path fill="rgb(185,214,122)" stroke="rgb(185,214,122)" stroke-width="1" opacity="1" d="M 80.5 82 L 81 84.5 L 80 84.5 L 80.5 82 Z " /><path fill="rgb(185,214,122)" stroke="rgb(185,214,122)" stroke-width="1" opacity="1" d="M 122.5 99 L 121.5 101 L 122.5 99 Z " /><path fill="rgb(185,214,122)" stroke="rgb(185,214,122)" stroke-width="1" opacity="1" d="M 76.5 104 L 77 106.5 L 76 106.5 L 76.5 104 Z " /><path fill="rgb(185,214,122)" stroke="rgb(185,214,122)" stroke-width="1" opacity="1" d="M 116.5 104 L 115.5 106 L 116.5 104 Z " /><path fill="rgb(185,214,122)" stroke="rgb(185,214,122)" stroke-width="1" opacity="1" d="M 111.5 108 L 110.5 110 L 111.5 108 Z " /><path fill="rgb(185,214,122)" stroke="rgb(185,214,122)" stroke-width="1" opacity="1" d="M 119.5 123 L 118.5 125 L 119.5 123 Z " /><path fill="rgb(185,214,122)" stroke="rgb(185,214,122)" stroke-width="1" opacity="1" d="M 120.5 130 L 121 132.5 L 120 132.5 L 120.5 130 Z " /><path fill="rgb(185,214,122)" stroke="rgb(185,214,122)" stroke-width="1" opacity="1" d="M 108.5 132 L 107.5 134 L 108.5 132 Z " /><path fill="rgb(185,214,122)" stroke="rgb(185,214,122)" stroke-width="1" opacity="1" d="M 102.5 137 L 101.5 139 L 102.5 137 Z " /><path fill="rgb(185,214,122)" stroke="rgb(185,214,122)" stroke-width="1" opacity="1" d="M 97.5 141 L 96.5 143 L 97.5 141 Z " /><path fill="rgb(185,214,122)" stroke="rgb(185,214,122)" stroke-width="1" opacity="1" d="M 118.5 141 L 119 143.5 L 118 143.5 L 118.5 141 Z " /><path fill="rgb(185,214,122)" stroke="rgb(185,214,122)" stroke-width="1" opacity="1" d="M 117.5 146 L 118 148.5 L 117 148.5 L 117.5 146 Z " /><path fill="rgb(185,214,122)" stroke="rgb(185,214,122)" stroke-width="1" opacity="1" d="M 116.5 152 L 117 154.5 L 116 154.5 L 116.5 152 Z " /><path fill="rgb(217,253,87)" stroke="rgb(217,253,87)" stroke-width="1" opacity="1" d="M 0 0 L 225 0 L 225 225 L 0 224.5 L 224 224 L 224 40 L 192.5 40 L 192 39.5 L 192 32.5 L 191.5 32 L 136.5 32 L 136 31.5 L 136 24.5 L 135.5 24 L 88.5 24 L 88 23.5 L 88 16.5 L 87.5 16 L 40.5 16 L 40 15.5 L 40 8 L 136 7.5 L 0 7 L 0.5 5 L 15.5 5 L 16 2 L 0.5 2 L 0 0 Z M 57 2 L 56 3 L 25 3 L 25 4 L 112 4 L 89 3 L 88 2 L 73 2 L 72 3 L 57 2 Z M 145 2 Q 143 5 137 3 L 137 4 L 224 4 L 193 3 L 192 2 L 145 2 Z M 185 7 L 185 8 L 224 8 L 185 7 Z " /><path fill="rgb(217,253,87)" stroke="rgb(217,253,87)" stroke-width="1" opacity="1" d="M 80 40 L 82 40.5 L 80 41.5 L 80 40 Z " /><path fill="rgb(217,253,87)" stroke="rgb(217,253,87)" stroke-width="1" opacity="1" d="M 85.5 40 L 87 40.5 L 82.5 47 L 82 43 Q 84.7 44.1 84 41.5 L 85.5 40 Z " /><path fill="rgb(217,253,87)" stroke="rgb(217,253,87)" stroke-width="1" opacity="1" d="M 88.5 40 L 108 40.5 L 88.5 41 L 88.5 40 Z " /><path fill="rgb(217,253,87)" stroke="rgb(217,253,87)" stroke-width="1" opacity="1" d="M 132 40 Q 134.7 38.9 134 41.5 Q 130.8 42.9 132 48 Q 128.3 49.4 130 43.5 L 132 40 Z " /><path fill="rgb(217,253,87)" stroke="rgb(217,253,87)" stroke-width="1" opacity="1" d="M 136.5 40 L 144 40.5 L 136.5 41 L 136.5 40 Z " /><path fill="rgb(217,253,87)" stroke="rgb(217,253,87)" stroke-width="1" opacity="1" d="M 152.5 40 L 160 40.5 L 152.5 41 L 152.5 40 Z " /><path fill="rgb(217,253,87)" stroke="rgb(217,253,87)" stroke-width="1" opacity="1" d="M 161 40 Q 164 38.8 163 42.5 L 162 45 L 135.5 45 Q 134.5 45 135 49.5 L 134 49.5 L 133 47.5 L 136.5 42 L 138 42.5 L 136 43.5 L 143.5 44 L 143.5 43 L 140 42.5 L 143.5 42 Q 145.3 44.8 151.5 43 Q 153.3 40.3 159.5 42 L 161 42.5 L 161 40 Z " /><path fill="rgb(217,253,87)" stroke="rgb(217,253,87)" stroke-width="1" opacity="1" d="M 166.5 40 L 168 44.5 L 167 44.5 L 166.5 43 L 165.5 46 L 165 41.5 L 166.5 40 Z " /><path fill="rgb(217,253,87)" stroke="rgb(217,253,87)" stroke-width="1" opacity="1" d="M 114.5 41 L 115.5 43 L 117 42.5 Q 117.8 44.8 115.5 44 L 114 43.5 L 115 45.5 L 114 47.5 L 115 49.5 L 111.5 56 L 112 54.5 L 113 45 L 88 44.5 L 104 43.5 L 96 42.5 L 107.5 42 L 111.5 44 L 114 43 L 114.5 41 Z " /><path fill="rgb(217,253,87)" stroke="rgb(217,253,87)" stroke-width="1" opacity="1" d="M 86.5 44 L 87 46.5 L 86.5 49 Q 83.8 47.8 86 46.5 L 86.5 44 Z " /><path fill="rgb(217,253,87)" stroke="rgb(217,253,87)" stroke-width="1" opacity="1" d="M 118.5 44 L 119 45.5 L 118 47.5 L 120 47.5 Q 121 51.3 118 50 L 118 48 Q 115.3 49.1 116 46.5 L 118.5 44 Z " /><path fill="rgb(217,253,87)" stroke="rgb(217,253,87)" stroke-width="1" opacity="1" d="M 163.5 46 Q 167.1 47.9 167 53.5 L 166 53.5 L 165 48 Q 161.8 49 163.5 46 Z " /><path fill="rgb(217,253,87)" stroke="rgb(217,253,87)" stroke-width="1" opacity="1" d="M 161.5 47 L 163 55.5 L 162 55.5 L 161.5 53 L 160 53.5 L 161.5 47 Z " /><path fill="rgb(217,253,87)" stroke="rgb(217,253,87)" stroke-width="1" opacity="1" d="M 85.5 50 L 86 53.5 L 84.5 59 L 84 53.5 L 85.5 50 Z " /><path fill="rgb(217,253,87)" stroke="rgb(217,253,87)" stroke-width="1" opacity="1" d="M 133.5 51 L 134 55.5 L 132.5 61 L 131 54.5 L 132 54.5 L 132.5 56 L 133.5 51 Z " /><path fill="rgb(217,253,87)" stroke="rgb(217,253,87)" stroke-width="1" opacity="1" d="M 81.5 52 L 83 54.5 L 81 53.5 L 81.5 52 Z " /><path fill="rgb(217,253,87)" stroke="rgb(217,253,87)" stroke-width="1" opacity="1" d="M 116.5 54 L 117 56 L 115 55.5 L 116.5 54 Z " /><path fill="rgb(217,253,87)" stroke="rgb(217,253,87)" stroke-width="1" opacity="1" d="M 128.5 54 L 130 57.5 L 129 57.5 L 128.5 54 Z " /><path fill="rgb(217,253,87)" stroke="rgb(217,253,87)" stroke-width="1" opacity="1" d="M 81.5 57 L 82 60.5 L 81 60.5 L 81.5 57 Z " /><path fill="rgb(217,253,87)" stroke="rgb(217,253,87)" stroke-width="1" opacity="1" d="M 159.5 58 L 160 60.5 L 159 60.5 L 159.5 58 Z " /><path fill="rgb(217,253,87)" stroke="rgb(217,253,87)" stroke-width="1" opacity="1" d="M 83.5 60 L 84 64.5 L 83 64.5 L 83.5 60 Z " /><path fill="rgb(217,253,87)" stroke="rgb(217,253,87)" stroke-width="1" opacity="1" d="M 110.5 62 L 112 65.5 L 111 65.5 L 110.5 62 Z " /><path fill="rgb(217,253,87)" stroke="rgb(217,253,87)" stroke-width="1" opacity="1" d="M 128.5 64 L 129 71.5 L 128 71.5 L 128.5 64 Z " /><path fill="rgb(217,253,87)" stroke="rgb(217,253,87)" stroke-width="1" opacity="1" d="M 130.5 64 L 132 67.5 L 130.5 74 L 130 67.5 L 131 65.5 L 130.5 64 Z " /><path fill="rgb(217,253,87)" stroke="rgb(217,253,87)" stroke-width="1" opacity="1" d="M 158.5 64 L 159 67.5 L 158 67.5 L 158.5 64 Z " /><path fill="rgb(217,253,87)" stroke="rgb(217,253,87)" stroke-width="1" opacity="1" d="M 81.5 66 Q 84 67 83 71.5 L 81.5 76 L 81 72.5 L 82 67.5 L 81.5 66 Z " /><path fill="rgb(217,253,87)" stroke="rgb(217,253,87)" stroke-width="1" opacity="1" d="M 109.5 67 L 110 73.5 L 110 75.5 L 111 82.5 L 109 81.5 L 108 73.5 L 109.5 67 Z " /><path fill="rgb(217,253,87)" stroke="rgb(217,253,87)" stroke-width="1" opacity="1" d="M 159.5 72 L 160 73.5 L 158.5 77 L 158 74.5 L 159.5 72 Z " /><path fill="rgb(217,253,87)" stroke="rgb(217,253,87)" stroke-width="1" opacity="1" d="M 129.5 75 L 130 78.5 L 129 78.5 L 129.5 75 Z " /><path fill="rgb(217,253,87)" stroke="rgb(217,253,87)" stroke-width="1" opacity="1" d="M 156.5 75 L 157 77.5 L 156 77.5 L 156.5 75 Z " /><path fill="rgb(217,253,87)" stroke="rgb(217,253,87)" stroke-width="1" opacity="1" d="M 80.5 78 L 81 81.5 L 80 81.5 L 80.5 78 Z " /><path fill="rgb(217,253,87)" stroke="rgb(217,253,87)" stroke-width="1" opacity="1" d="M 107.5 78 L 109 87.5 L 108 87.5 L 107.5 84 L 106.5 87 L 106 84.5 L 107.5 78 Z " /><path fill="rgb(217,253,87)" stroke="rgb(217,253,87)" stroke-width="1" opacity="1" d="M 158.5 78 L 159 81.5 L 157 85.5 Q 159.8 87.2 159 92.5 L 158 92.5 L 158 88.5 L 155 83.5 L 157 83.5 L 158.5 78 Z " /><path fill="rgb(217,253,87)" stroke="rgb(217,253,87)" stroke-width="1" opacity="1" d="M 128.5 80 L 129 84.5 L 128 84.5 L 128.5 80 Z " /><path fill="rgb(217,253,87)" stroke="rgb(217,253,87)" stroke-width="1" opacity="1" d="M 78 84 Q 81.7 82.8 80 88 Q 75.5 86.3 77 91.5 L 76 91.5 L 78 84 Z " /><path fill="rgb(217,253,87)" stroke="rgb(217,253,87)" stroke-width="1" opacity="1" d="M 154.5 87 L 156 90.5 L 154 89.5 L 154.5 87 Z " /><path fill="rgb(217,253,87)" stroke="rgb(217,253,87)" stroke-width="1" opacity="1" d="M 124.5 88 L 125 94.5 L 124 94.5 L 124.5 88 Z " /><path fill="rgb(217,253,87)" stroke="rgb(217,253,87)" stroke-width="1" opacity="1" d="M 127.5 88 L 128 90.5 L 127 95.5 L 123.5 99 L 126 95.5 L 127.5 88 Z " /><path fill="rgb(217,253,87)" stroke="rgb(217,253,87)" stroke-width="1" opacity="1" d="M 73.5 89 L 74 93.5 L 73 93.5 L 73.5 89 Z " /><path fill="rgb(217,253,87)" stroke="rgb(217,253,87)" stroke-width="1" opacity="1" d="M 78.5 90 L 79 92.5 L 77.5 100 L 77 93.5 L 78.5 90 Z " /><path fill="rgb(217,253,87)" stroke="rgb(217,253,87)" stroke-width="1" opacity="1" d="M 107.5 90 L 108 94.5 L 107 94.5 L 107.5 90 Z " /><path fill="rgb(217,253,87)" stroke="rgb(217,253,87)" stroke-width="1" opacity="1" d="M 121.5 90 L 122 93.5 L 121 93.5 L 121.5 90 Z " /><path fill="rgb(217,253,87)" stroke="rgb(217,253,87)" stroke-width="1" opacity="1" d="M 153.5 92 L 155 97.5 L 152.5 102 L 152 98 Q 154.7 99.1 154 96.5 L 153.5 92 Z " /><path fill="rgb(217,253,87)" stroke="rgb(217,253,87)" stroke-width="1" opacity="1" d="M 73.5 95 L 73 96.5 L 72.5 100 L 72 96.5 L 73.5 95 Z " /><path fill="rgb(217,253,87)" stroke="rgb(217,253,87)" stroke-width="1" opacity="1" d="M 122.5 95 L 123 96.5 L 121 97.5 L 122.5 95 Z " /><path fill="rgb(217,253,87)" stroke="rgb(217,253,87)" stroke-width="1" opacity="1" d="M 115.5 98 Q 117.8 97.3 117 99.5 L 114 101.5 Q 113.3 99.3 115.5 100 L 115.5 98 Z " /><path fill="rgb(217,253,87)" stroke="rgb(217,253,87)" stroke-width="1" opacity="1" d="M 74.5 99 L 75 103.5 L 73.5 106 L 73 104.5 L 74.5 99 Z " /><path fill="rgb(217,253,87)" stroke="rgb(217,253,87)" stroke-width="1" opacity="1" d="M 121.5 99 L 119.5 102 L 115.5 105 L 118.5 101 L 121.5 99 Z " /><path fill="rgb(217,253,87)" stroke="rgb(217,253,87)" stroke-width="1" opacity="1" d="M 76.5 101 L 77 103.5 L 76 103.5 L 76.5 101 Z " /><path fill="rgb(217,253,87)" stroke="rgb(217,253,87)" stroke-width="1" opacity="1" d="M 151.5 103 L 152 106.5 L 151 106.5 L 151.5 103 Z " /><path fill="rgb(217,253,87)" stroke="rgb(217,253,87)" stroke-width="1" opacity="1" d="M 104.5 105 Q 107.5 106.5 104.5 108 L 104.5 105 Z " /><path fill="rgb(217,253,87)" stroke="rgb(217,253,87)" stroke-width="1" opacity="1" d="M 109.5 106 L 112 107.5 L 110.5 107 L 109.5 106 Z " /><path fill="rgb(217,253,87)" stroke="rgb(217,253,87)" stroke-width="1" opacity="1" d="M 75.5 107 L 76 109.5 L 75 109.5 L 75.5 107 Z " /><path fill="rgb(217,253,87)" stroke="rgb(217,253,87)" stroke-width="1" opacity="1" d="M 102.5 107 L 103 110.5 L 102 110.5 L 102.5 107 Z " /><path fill="rgb(217,253,87)" stroke="rgb(217,253,87)" stroke-width="1" opacity="1" d="M 106.5 109 L 108.5 110 L 110 109.5 L 101.5 116 L 101.5 115 L 104 113.5 L 103 112.5 L 106.5 109 Z " /><path fill="rgb(217,253,87)" stroke="rgb(217,253,87)" stroke-width="1" opacity="1" d="M 150.5 110 L 152 113.5 L 151 113.5 L 150.5 110 Z " /><path fill="rgb(217,253,87)" stroke="rgb(217,253,87)" stroke-width="1" opacity="1" d="M 74.5 112 L 75 115.5 L 73.5 122 L 73 116.5 L 74.5 112 Z " /><path fill="rgb(217,253,87)" stroke="rgb(217,253,87)" stroke-width="1" opacity="1" d="M 148.5 121 L 149 124.5 L 148 124.5 L 148.5 121 Z " /><path fill="rgb(217,253,87)" stroke="rgb(217,253,87)" stroke-width="1" opacity="1" d="M 121.5 122 L 122 124 L 120 124.5 L 120.5 126 Q 117 124 121.5 122 Z " /><path fill="rgb(217,253,87)" stroke="rgb(217,253,87)" stroke-width="1" opacity="1" d="M 72.5 123 L 73 127.5 L 72 127.5 L 72.5 123 Z " /><path fill="rgb(217,253,87)" stroke="rgb(217,253,87)" stroke-width="1" opacity="1" d="M 117.5 125 L 115 128.5 L 114 130.5 L 116 131 L 116.5 129 L 117 130.5 L 114.5 132 L 112 130.5 L 117.5 125 Z " /><path fill="rgb(217,253,87)" stroke="rgb(217,253,87)" stroke-width="1" opacity="1" d="M 120.5 127 L 121 129.5 L 120 129.5 L 120.5 127 Z " /><path fill="rgb(217,253,87)" stroke="rgb(217,253,87)" stroke-width="1" opacity="1" d="M 147.5 127 L 148 129.5 L 147 129.5 L 147.5 127 Z " /><path fill="rgb(217,253,87)" stroke="rgb(217,253,87)" stroke-width="1" opacity="1" d="M 149.5 128 Q 152.1 127.2 151 130.5 L 150 130.5 L 149.5 128 Z " /><path fill="rgb(217,253,87)" stroke="rgb(217,253,87)" stroke-width="1" opacity="1" d="M 71.5 130 L 72 133.5 L 70.5 139 L 70 132.5 L 71.5 130 Z " /><path fill="rgb(217,253,87)" stroke="rgb(217,253,87)" stroke-width="1" opacity="1" d="M 110.5 131 L 106.5 136 L 105 135.5 L 110.5 131 Z " /><path fill="rgb(217,253,87)" stroke="rgb(217,253,87)" stroke-width="1" opacity="1" d="M 118.5 133 Q 121.5 132.2 120 136 L 118 135.5 L 118.5 133 Z " /><path fill="rgb(217,253,87)" stroke="rgb(217,253,87)" stroke-width="1" opacity="1" d="M 118.5 137 L 119 140.5 L 118 140.5 L 118.5 137 Z " /><path fill="rgb(217,253,87)" stroke="rgb(217,253,87)" stroke-width="1" opacity="1" d="M 101.5 139 L 102.5 141 L 101.5 139 Z " /><path fill="rgb(217,253,87)" stroke="rgb(217,253,87)" stroke-width="1" opacity="1" d="M 69.5 140 L 70 143.5 L 69 143.5 L 69.5 140 Z " /><path fill="rgb(217,253,87)" stroke="rgb(217,253,87)" stroke-width="1" opacity="1" d="M 99.5 140 Q 104 142 100.5 144 L 99.5 140 Z " /><path fill="rgb(217,253,87)" stroke="rgb(217,253,87)" stroke-width="1" opacity="1" d="M 150.5 140 L 151 143.5 L 150 143.5 L 150.5 140 Z " /><path fill="rgb(217,253,87)" stroke="rgb(217,253,87)" stroke-width="1" opacity="1" d="M 67.5 141 L 68 143.5 L 67 143.5 L 67.5 141 Z " /><path fill="rgb(217,253,87)" stroke="rgb(217,253,87)" stroke-width="1" opacity="1" d="M 117.5 142 L 118 145.5 L 117 145.5 L 117.5 142 Z " /><path fill="rgb(217,253,87)" stroke="rgb(217,253,87)" stroke-width="1" opacity="1" d="M 68.5 146 L 69 149.5 L 68 149.5 L 68.5 146 Z " /><path fill="rgb(217,253,87)" stroke="rgb(217,253,87)" stroke-width="1" opacity="1" d="M 95.5 147 L 96 149.5 L 95 149.5 L 95.5 147 Z " /><path fill="rgb(217,253,87)" stroke="rgb(217,253,87)" stroke-width="1" opacity="1" d="M 65.5 152 L 66 154.5 L 65 154.5 L 65.5 152 Z " /><path fill="rgb(217,253,87)" stroke="rgb(217,253,87)" stroke-width="1" opacity="1" d="M 67.5 153 L 68 155.5 L 66.5 161 L 66 156.5 L 67.5 153 Z " /><path fill="rgb(217,253,87)" stroke="rgb(217,253,87)" stroke-width="1" opacity="1" d="M 115.5 155 L 116 157.5 L 115 157.5 L 115.5 155 Z " /><path fill="rgb(217,253,87)" stroke="rgb(217,253,87)" stroke-width="1" opacity="1" d="M 142.5 155 L 143 157.5 L 142 157.5 L 142.5 155 Z " /><path fill="rgb(217,253,87)" stroke="rgb(217,253,87)" stroke-width="1" opacity="1" d="M 114.5 159 L 115 163.5 L 113 164.5 L 114.5 159 Z " /><path fill="rgb(217,253,87)" stroke="rgb(217,253,87)" stroke-width="1" opacity="1" d="M 141.5 160 L 142 164.5 L 141 164.5 L 141.5 160 Z " /><path fill="rgb(217,253,87)" stroke="rgb(217,253,87)" stroke-width="1" opacity="1" d="M 65.5 163 L 66 166.5 L 65 166.5 L 65.5 163 Z " /><path fill="rgb(217,253,87)" stroke="rgb(217,253,87)" stroke-width="1" opacity="1" d="M 64.5 170 L 65 172.5 L 64 172.5 L 64.5 170 Z " /><path fill="rgb(217,253,87)" stroke="rgb(217,253,87)" stroke-width="1" opacity="1" d="M 112.5 172 L 113 174.5 L 112 174.5 L 112.5 172 Z " /><path fill="rgb(217,253,87)" stroke="rgb(217,253,87)" stroke-width="1" opacity="1" d="M 139.5 172 L 140 175.5 L 139 175.5 L 139.5 172 Z " /><path fill="rgb(217,253,87)" stroke="rgb(217,253,87)" stroke-width="1" opacity="1" d="M 63.5 176 L 64 177.5 L 62 178.5 L 63.5 176 Z " /><path fill="rgb(210,250,77)" stroke="rgb(210,250,77)" stroke-width="1" opacity="1" d="M 108.5 40 L 112 40.5 L 108.5 41 L 108.5 40 Z " /><path fill="rgb(210,250,77)" stroke="rgb(210,250,77)" stroke-width="1" opacity="1" d="M 117.5 43 L 118 44.5 L 116 45.5 L 117.5 43 Z " /><path fill="rgb(210,250,77)" stroke="rgb(210,250,77)" stroke-width="1" opacity="1" d="M 131.5 51 L 133 55.5 L 132 55.5 L 131.5 51 Z " /><path fill="rgb(210,250,77)" stroke="rgb(210,250,77)" stroke-width="1" opacity="1" d="M 115.5 53 L 114.5 55 L 115.5 53 Z " /><path fill="rgb(210,250,77)" stroke="rgb(210,250,77)" stroke-width="1" opacity="1" d="M 80.5 61 L 82 64 Q 78.5 65.1 80.5 61 Z " /><path fill="rgb(210,250,77)" stroke="rgb(210,250,77)" stroke-width="1" opacity="1" d="M 111.5 73 L 110.5 75 L 111.5 73 Z " /><path fill="rgb(210,250,77)" stroke="rgb(210,250,77)" stroke-width="1" opacity="1" d="M 111.5 76 L 111.5 79 Q 108.5 77.5 111.5 76 Z " /><path fill="rgb(210,250,77)" stroke="rgb(210,250,77)" stroke-width="1" opacity="1" d="M 0 80 L 56 80 L 56 88 L 72 88 L 72 112 L 56 112 L 56 104.5 L 55.5 104 L 8 104 L 8 96 L 0 96 L 0 80 Z " /><path fill="rgb(210,250,77)" stroke="rgb(210,250,77)" stroke-width="1" opacity="1" d="M 109.5 82 L 111 84.5 L 109.5 87 L 109.5 82 Z " /><path fill="rgb(210,250,77)" stroke="rgb(210,250,77)" stroke-width="1" opacity="1" d="M 74.5 88 Q 76.8 87.3 76 89.5 L 74 90.5 L 74.5 88 Z " /><path fill="rgb(210,250,77)" stroke="rgb(210,250,77)" stroke-width="1" opacity="1" d="M 110.5 88 L 112.5 97 L 114 96.5 L 116 99.5 L 114 100 Q 115 97 112 98 L 111.5 105 Q 110 102.5 104.5 104 L 103 102.5 L 104 96 L 110 96 L 110.5 88 Z " /><path fill="rgb(210,250,77)" stroke="rgb(210,250,77)" stroke-width="1" opacity="1" d="M 158.5 93 L 159 95.5 L 156 95.5 L 158.5 93 Z " /><path fill="rgb(210,250,77)" stroke="rgb(210,250,77)" stroke-width="1" opacity="1" d="M 121.5 94 L 122 96.5 L 119.5 98 L 119.5 97 Q 122.4 97.7 121.5 94 Z " /><path fill="rgb(210,250,77)" stroke="rgb(210,250,77)" stroke-width="1" opacity="1" d="M 75.5 96 L 76 99 Q 73.3 100.1 74 97.5 L 75.5 96 Z " /><path fill="rgb(210,250,77)" stroke="rgb(210,250,77)" stroke-width="1" opacity="1" d="M 117.5 96 L 119 99.5 L 117 98.5 L 117.5 96 Z " /><path fill="rgb(210,250,77)" stroke="rgb(210,250,77)" stroke-width="1" opacity="1" d="M 155.5 98 L 154.5 100 L 155.5 98 Z " /><path fill="rgb(210,250,77)" stroke="rgb(210,250,77)" stroke-width="1" opacity="1" d="M 157.5 102 L 158 104 L 207.5 104 L 208 104.5 L 208 112 L 200 112 L 200 120 L 224 120 L 224 128 L 216 128 L 216 136 L 208 136 L 208 128.5 L 207.5 128 L 168.5 128 L 168 127.5 L 168 120 L 151.5 120 L 151 118.5 L 152 117.5 L 152 104 Q 157.8 106 157.5 102 Z " /><path fill="rgb(210,250,77)" stroke="rgb(210,250,77)" stroke-width="1" opacity="1" d="M 150.5 123 L 151.5 125 L 150.5 123 Z " /><path fill="rgb(210,250,77)" stroke="rgb(210,250,77)" stroke-width="1" opacity="1" d="M 69.5 128 L 70 130.5 L 69 130.5 L 69.5 128 Z " /><path fill="rgb(210,250,77)" stroke="rgb(210,250,77)" stroke-width="1" opacity="1" d="M 116.5 131 Q 118.8 130.3 118 132.5 L 115 132.5 L 116.5 131 Z " /><path fill="rgb(210,250,77)" stroke="rgb(210,250,77)" stroke-width="1" opacity="1" d="M 66.5 132 L 67 134 L 65 133.5 L 66.5 132 Z " /><path fill="rgb(210,250,77)" stroke="rgb(210,250,77)" stroke-width="1" opacity="1" d="M 113.5 134 L 114 135.5 Q 112.8 138.3 111.5 136 L 110 135.5 L 111.5 135 L 113 135.5 L 113.5 134 Z " /><path fill="rgb(210,250,77)" stroke="rgb(210,250,77)" stroke-width="1" opacity="1" d="M 115.5 139 L 116 141.5 L 114.5 144 L 114 142.5 L 115.5 139 Z " /><path fill="rgb(210,250,77)" stroke="rgb(210,250,77)" stroke-width="1" opacity="1" d="M 64.5 140 L 66 145.5 L 65 145.5 L 64.5 140 Z " /><path fill="rgb(210,250,77)" stroke="rgb(210,250,77)" stroke-width="1" opacity="1" d="M 68.5 141 L 69 143.5 L 68 143.5 L 68.5 141 Z " /><path fill="rgb(210,250,77)" stroke="rgb(210,250,77)" stroke-width="1" opacity="1" d="M 147.5 141 L 148 142.5 L 146 144.5 L 146 152 Q 143.3 153.1 144 150.5 L 144 148.5 Q 142.1 143.1 145.5 144 L 147.5 141 Z " /><path fill="rgb(210,250,77)" stroke="rgb(210,250,77)" stroke-width="1" opacity="1" d="M 112.5 144 L 113 147.5 L 112 147.5 L 112.5 144 Z " /><path fill="rgb(210,250,77)" stroke="rgb(210,250,77)" stroke-width="1" opacity="1" d="M 115.5 146 L 115 147.5 L 114.5 149 L 114 147.5 L 115.5 146 Z " /><path fill="rgb(210,250,77)" stroke="rgb(210,250,77)" stroke-width="1" opacity="1" d="M 95.5 156 L 96 159.5 L 94 160.5 L 95.5 156 Z " /><path fill="rgb(210,250,77)" stroke="rgb(210,250,77)" stroke-width="1" opacity="1" d="M 142.5 163 L 143 165.5 L 142 165.5 L 142.5 163 Z " /><path fill="rgb(210,250,77)" stroke="rgb(210,250,77)" stroke-width="1" opacity="1" d="M 111.5 176 L 112 183.5 L 111 183.5 L 111.5 176 Z " /><path fill="rgb(210,250,77)" stroke="rgb(210,250,77)" stroke-width="1" opacity="1" d="M 91 178 Q 94 177 93 180 Q 90 181 91 178 Z " /><path fill="rgb(210,250,77)" stroke="rgb(210,250,77)" stroke-width="1" opacity="1" d="M 58.5 179 L 59.5 181 Q 56.7 181.7 58.5 179 Z " /><path fill="rgb(210,250,77)" stroke="rgb(210,250,77)" stroke-width="1" opacity="1" d="M 64.5 181 L 67 181.5 L 64.5 182 L 64.5 181 Z " /><path fill="rgb(210,250,77)" stroke="rgb(210,250,77)" stroke-width="1" opacity="1" d="M 71.5 181 L 88 181.5 L 71.5 182 L 71.5 181 Z " /><path fill="rgb(210,250,77)" stroke="rgb(210,250,77)" stroke-width="1" opacity="1" d="M 113.5 181 L 117 181.5 L 113.5 182 L 113.5 181 Z " /><path fill="rgb(210,250,77)" stroke="rgb(210,250,77)" stroke-width="1" opacity="1" d="M 120.5 181 L 136 181.5 L 120.5 182 L 120.5 181 Z " /><path fill="rgb(210,250,77)" stroke="rgb(210,250,77)" stroke-width="1" opacity="1" d="M 142.5 181 Q 145.5 182.5 142.5 184 L 142.5 181 Z " /><path fill="rgb(9,50,54)" stroke="rgb(9,50,54)" stroke-width="1" opacity="1" d="M 106.5 48 L 107 50.5 L 105.5 50 L 104 49.5 L 106.5 48 Z " /><path fill="rgb(9,50,54)" stroke="rgb(9,50,54)" stroke-width="1" opacity="1" d="M 85.5 59 L 88 59.5 Q 85.9 62.8 85.5 59 Z " /><path fill="rgb(9,50,54)" stroke="rgb(9,50,54)" stroke-width="1" opacity="1" d="M 85.5 69 L 84.5 71 L 83 70.5 L 85.5 69 Z " /><path fill="rgb(9,50,54)" stroke="rgb(9,50,54)" stroke-width="1" opacity="1" d="M 85.5 72 L 86.5 77 Q 89 75.8 88 72 L 96 72 L 96 80 L 104 80 L 104 82.5 L 105.5 85 L 104 85 Q 105.5 88.7 102.5 88 L 102.5 89 L 105 90.5 Q 103.5 93.5 102 90.5 Q 102.7 87.9 100 89 L 101 95 L 103 95.5 L 101.5 96 L 99.5 96 Q 97.3 95.3 98 97.5 L 99.5 97 L 102 97.5 L 99 98 L 101 103.5 L 98 104 L 96.5 98 L 96 103.5 L 97 105.5 L 96 108.5 L 96.5 111 L 98 110.5 L 99 113.5 L 96 112.5 L 97 116.5 L 96 119 L 100.5 120 L 99.5 117 Q 100.8 120 105 119 Q 103.9 116.3 106.5 117 L 107.5 120 Q 111.3 120.8 112 118.5 L 111 116.5 L 112 114.5 Q 109.7 113.3 112.5 112 L 128 112 L 128 120 L 136 120 L 136 136.5 L 139.5 137 L 144 138 L 144 140 Q 141.3 138.9 142 141.5 L 136 145.5 L 137.5 146 Q 139.2 143.2 141 147.5 L 142 151.5 L 140 152 L 139.5 149 L 136 154.5 L 137 158.5 L 136 161 Q 139 159.8 138 163.5 Q 141.5 165 139 166.5 L 138.5 168 L 138 166.5 L 138.5 165 L 136 166.5 L 137 169.5 L 136 172.5 L 139 171.5 Q 139.7 174.1 137 173 L 137 175.5 L 135.5 177 L 120.5 177 L 119.5 176 L 117 177.5 L 116 173.5 L 117 173.5 Q 116.2 176.1 119.5 175 L 120.5 176 L 128 176 L 128 160.5 L 127.5 160 L 120 160 L 120 147.5 L 118 147.5 L 120 144.5 L 119 141 L 123 139 L 123 136.5 L 124 136.5 L 124.5 138 L 125 136 L 128 135.5 L 128 126.5 L 128 124.5 Q 130.2 118.2 124.5 120 L 122.5 120 L 119.5 121 L 116.5 120 L 112 122.5 L 112.5 125 L 113 123 L 116 124.5 Q 114 122.8 112 126.5 L 111.5 129 Q 110.3 126.8 105.5 128 L 104 131.5 Q 105 137 101.5 138 L 101.5 136 Q 96.3 134.8 95 137.5 L 95.5 139 L 93 137.5 L 96 135.5 L 96 120 L 88 120 L 88 112 L 80 112 L 80 101.5 Q 76.5 100 79 98.5 L 80 95.5 L 80 93.5 L 81.5 90 L 83 90.5 L 84 87.5 L 83.5 86 L 86.5 90 L 88 86.5 L 86 86.5 Q 86.7 83.9 84 85 L 84 83 L 86 82.5 L 83 80.5 L 85.5 72 Z M 86 77 L 84 81 L 86 81 L 86 77 Z M 88 79 L 87 83 L 88 83 L 88 79 Z M 97 88 L 97 89 L 100 89 L 97 88 Z M 88 90 L 87 94 L 88 94 L 88 90 Z M 139 139 L 137 141 L 140 141 L 139 139 Z M 137 148 L 136 152 L 137 152 L 137 148 Z " /><path fill="rgb(9,50,54)" stroke="rgb(9,50,54)" stroke-width="1" opacity="1" d="M 130.5 78 Q 132.8 77.3 132 79.5 L 132.5 81 L 130.5 78 Z " /><path fill="rgb(9,50,54)" stroke="rgb(9,50,54)" stroke-width="1" opacity="1" d="M 135.5 80 L 136 81.5 L 135.5 84 L 132 82.5 L 135 82 L 135.5 80 Z " /><path fill="rgb(9,50,54)" stroke="rgb(9,50,54)" stroke-width="1" opacity="1" d="M 129.5 84 L 130.5 86 L 129.5 84 Z " /><path fill="rgb(9,50,54)" stroke="rgb(9,50,54)" stroke-width="1" opacity="1" d="M 128.5 90 L 130 92.5 L 129 92.5 L 128.5 90 Z " /><path fill="rgb(9,50,54)" stroke="rgb(9,50,54)" stroke-width="1" opacity="1" d="M 134.5 91 L 135 93.5 L 134 93.5 L 134.5 91 Z " /><path fill="rgb(9,50,54)" stroke="rgb(9,50,54)" stroke-width="1" opacity="1" d="M 150.5 96 L 152 98.5 L 146.5 101 L 146 97.5 L 147 97.5 L 147.5 99 L 150 98 L 150.5 96 Z " /><path fill="rgb(9,50,54)" stroke="rgb(9,50,54)" stroke-width="1" opacity="1" d="M 127.5 97 L 126.5 99 L 127.5 97 Z " /><path fill="rgb(9,50,54)" stroke="rgb(9,50,54)" stroke-width="1" opacity="1" d="M 101.5 100 L 102.5 102 L 101.5 100 Z " /><path fill="rgb(9,50,54)" stroke="rgb(9,50,54)" stroke-width="1" opacity="1" d="M 121.5 102 Q 123.8 101.3 123 103.5 L 121.5 102 Z " /><path fill="rgb(9,50,54)" stroke="rgb(9,50,54)" stroke-width="1" opacity="1" d="M 77.5 104 L 79 104 L 79 109 L 77 108.5 L 78 105.5 L 77.5 104 Z " /><path fill="rgb(9,50,54)" stroke="rgb(9,50,54)" stroke-width="1" opacity="1" d="M 98.5 105 L 101 105.5 L 100.5 107 L 102 107.5 L 100 108.5 Q 102.3 109.8 99.5 111 L 99 108.5 L 98.5 105 Z " /><path fill="rgb(9,50,54)" stroke="rgb(9,50,54)" stroke-width="1" opacity="1" d="M 144.5 105 L 145 107.5 L 144 107.5 L 144.5 105 Z " /><path fill="rgb(9,50,54)" stroke="rgb(9,50,54)" stroke-width="1" opacity="1" d="M 119.5 106 L 120 107.5 L 118 108.5 L 119.5 106 Z " /><path fill="rgb(9,50,54)" stroke="rgb(9,50,54)" stroke-width="1" opacity="1" d="M 146.5 107 L 149 107.5 L 146 109 L 146.5 107 Z " /><path fill="rgb(9,50,54)" stroke="rgb(9,50,54)" stroke-width="1" opacity="1" d="M 113.5 108 L 117 109 L 116.5 111 L 113.5 108 Z " /><path fill="rgb(9,50,54)" stroke="rgb(9,50,54)" stroke-width="1" opacity="1" d="M 78.5 110 L 79 112 L 77 111.5 L 78.5 110 Z " /><path fill="rgb(9,50,54)" stroke="rgb(9,50,54)" stroke-width="1" opacity="1" d="M 79.5 113 L 79 114.5 L 80 118.5 L 80 120.5 L 79.5 124 L 78.5 120 L 76.5 124 L 76 122.5 L 78 119.5 L 77 116.5 L 79.5 113 Z " /><path fill="rgb(9,50,54)" stroke="rgb(9,50,54)" stroke-width="1" opacity="1" d="M 144.5 113 Q 146.8 112.3 146 114.5 L 144.5 113 Z " /><path fill="rgb(9,50,54)" stroke="rgb(9,50,54)" stroke-width="1" opacity="1" d="M 147.5 113 L 149 115.5 L 147 114.5 L 147.5 113 Z " /><path fill="rgb(9,50,54)" stroke="rgb(9,50,54)" stroke-width="1" opacity="1" d="M 76.5 114 L 76 115.5 L 75.5 117 L 75 115.5 L 76.5 114 Z " /><path fill="rgb(9,50,54)" stroke="rgb(9,50,54)" stroke-width="1" opacity="1" d="M 146.5 116 L 147 118.5 L 145.5 121 L 147 121.5 L 145.5 122 Q 142.3 120.3 146 118.5 L 146.5 116 Z " /><path fill="rgb(9,50,54)" stroke="rgb(9,50,54)" stroke-width="1" opacity="1" d="M 125.5 121 Q 127.8 120.3 127 122.5 L 125.5 121 Z " /><path fill="rgb(9,50,54)" stroke="rgb(9,50,54)" stroke-width="1" opacity="1" d="M 74.5 125 L 76.5 128 L 79 126.5 Q 77 131 75 127.5 L 74.5 125 Z " /><path fill="rgb(9,50,54)" stroke="rgb(9,50,54)" stroke-width="1" opacity="1" d="M 124.5 125 L 126 127.5 L 125 127.5 L 124.5 125 Z " /><path fill="rgb(9,50,54)" stroke="rgb(9,50,54)" stroke-width="1" opacity="1" d="M 123.5 129 L 125.5 130 L 127 129.5 Q 127.8 134.3 124.5 135 L 124 132.5 L 123.5 129 Z " /><path fill="rgb(9,50,54)" stroke="rgb(9,50,54)" stroke-width="1" opacity="1" d="M 144.5 130 L 146 132.5 L 144 133 L 144.5 130 Z " /><path fill="rgb(9,50,54)" stroke="rgb(9,50,54)" stroke-width="1" opacity="1" d="M 106 131 Q 109 130 108 133 L 105.5 134 L 106 132.5 L 106 131 Z " /><path fill="rgb(9,50,54)" stroke="rgb(9,50,54)" stroke-width="1" opacity="1" d="M 88.5 137 Q 91.3 138.4 90 143 Q 87.3 144.1 88 141.5 L 89 138.5 L 88.5 137 Z " /><path fill="rgb(9,50,54)" stroke="rgb(9,50,54)" stroke-width="1" opacity="1" d="M 95.5 140 L 96.5 142 Q 93.7 142.7 95.5 140 Z " /><path fill="rgb(9,50,54)" stroke="rgb(9,50,54)" stroke-width="1" opacity="1" d="M 93.5 142 Q 96.3 143.3 94 144.5 L 95 147.5 Q 93.5 150.5 92 147.5 L 93.5 142 Z " /><path fill="rgb(9,50,54)" stroke="rgb(9,50,54)" stroke-width="1" opacity="1" d="M 70.5 144 L 72 147.5 L 70 148.5 L 71 146.5 L 70.5 144 Z " /><path fill="rgb(9,50,54)" stroke="rgb(9,50,54)" stroke-width="1" opacity="1" d="M 88.5 146 L 89 152.5 L 88 152.5 L 88.5 146 Z " /><path fill="rgb(9,50,54)" stroke="rgb(9,50,54)" stroke-width="1" opacity="1" d="M 138.5 154 L 142 155.5 L 140 156 L 141 160.5 L 139 159.5 L 138.5 154 Z " /><path fill="rgb(9,50,54)" stroke="rgb(9,50,54)" stroke-width="1" opacity="1" d="M 118.5 155 L 119 157.5 L 118 157.5 L 118.5 155 Z " /><path fill="rgb(9,50,54)" stroke="rgb(9,50,54)" stroke-width="1" opacity="1" d="M 91 157 L 93 157.5 Q 89.9 159.3 91.5 161 Q 88.8 159.8 91 158.5 L 91 157 Z " /><path fill="rgb(9,50,54)" stroke="rgb(9,50,54)" stroke-width="1" opacity="1" d="M 117.5 161 L 116 163.5 L 115.5 165 L 115 163.5 L 117.5 161 Z " /><path fill="rgb(9,50,54)" stroke="rgb(9,50,54)" stroke-width="1" opacity="1" d="M 67.5 162 Q 70.1 161.2 69 164.5 L 68 164.5 L 67.5 162 Z " /><path fill="rgb(9,50,54)" stroke="rgb(9,50,54)" stroke-width="1" opacity="1" d="M 91.5 163 L 90.5 165 L 91.5 163 Z " /><path fill="rgb(9,50,54)" stroke="rgb(9,50,54)" stroke-width="1" opacity="1" d="M 118.5 164 L 119 165.5 L 116.5 169 L 115.5 167 L 117 167.5 L 118.5 164 Z " /><path fill="rgb(9,50,54)" stroke="rgb(9,50,54)" stroke-width="1" opacity="1" d="M 71.5 165 L 72 167.5 L 70.5 170 L 70 168.5 L 71.5 165 Z " /><path fill="rgb(9,50,54)" stroke="rgb(9,50,54)" stroke-width="1" opacity="1" d="M 115.5 170 L 116.5 172 L 115.5 170 Z " /><path fill="rgb(9,50,54)" stroke="rgb(9,50,54)" stroke-width="1" opacity="1" d="M 65.5 172 L 67 176.5 L 66 178.5 L 66.5 180 Q 63.1 178.1 65.5 172 Z " /><path fill="rgb(9,50,54)" stroke="rgb(9,50,54)" stroke-width="1" opacity="1" d="M 114.5 179 L 117 179.5 L 114.5 180 L 114.5 179 Z " /><path fill="rgb(5,36,38)" stroke="rgb(5,36,38)" stroke-width="1" opacity="1" d="M 88.5 46 L 111.5 46 L 112 49.5 L 111 49.5 Q 111.7 46.9 109 48 L 108.5 50 L 108 48 L 105.5 49 L 103.5 47 L 88.5 47 L 88.5 46 Z " /><path fill="rgb(5,36,38)" stroke="rgb(5,36,38)" stroke-width="1" opacity="1" d="M 136 46 L 161 46.5 L 154.5 81 L 153 80.5 L 154 85.5 L 151.5 98 L 150.5 96 L 150 98 Q 147.3 99.1 148 96.5 L 147 95.5 L 147 88 L 144 88 L 144 80 L 135 80 Q 136 83 133 82 L 131 74.5 L 133 71.5 L 132 68.5 L 133 63 L 136 62.5 L 134 62 L 134.5 56 L 135.5 58 L 136 54.5 L 135 51.5 L 136 46 Z M 156 52 L 157 55 L 158 53 L 156 52 Z M 156 56 L 155 59 L 156 59 L 156 56 Z M 153 61 L 153 65 L 155 64 Q 156 60 153 61 Z M 156 64 L 155 68 L 156 68 L 156 64 Z M 136 65 L 135 68 L 136 68 L 136 65 Z M 152 66 L 152 68 L 154 67 L 152 66 Z M 136 69 L 134 72 L 136 73 L 136 69 Z M 153 71 L 152 76 L 153 76 L 153 71 Z M 134 72 L 134 75 L 132 75 L 133 79 L 135 80 Q 136 73 134 72 Z " /><path fill="rgb(5,36,38)" stroke="rgb(5,36,38)" stroke-width="1" opacity="1" d="M 87.5 48 L 88 50.5 L 87 50.5 L 87.5 48 Z " /><path fill="rgb(5,36,38)" stroke="rgb(5,36,38)" stroke-width="1" opacity="1" d="M 105.5 50 L 106 58.5 L 105 58.5 L 105.5 50 Z " /><path fill="rgb(5,36,38)" stroke="rgb(5,36,38)" stroke-width="1" opacity="1" d="M 108.5 51 L 109 54.5 L 108 54.5 L 107 52.5 L 108.5 51 Z " /><path fill="rgb(5,36,38)" stroke="rgb(5,36,38)" stroke-width="1" opacity="1" d="M 110.5 52 L 111 55.5 L 110 55.5 L 110.5 52 Z " /><path fill="rgb(5,36,38)" stroke="rgb(5,36,38)" stroke-width="1" opacity="1" d="M 86 55 Q 88.7 53.9 88 56.5 L 86 57.5 L 86 55 Z " /><path fill="rgb(5,36,38)" stroke="rgb(5,36,38)" stroke-width="1" opacity="1" d="M 109.5 58 L 110 60.5 L 109 60.5 L 109.5 58 Z " /><path fill="rgb(5,36,38)" stroke="rgb(5,36,38)" stroke-width="1" opacity="1" d="M 85.5 60 L 87 65.5 L 86 65.5 L 85.5 60 Z " /><path fill="rgb(5,36,38)" stroke="rgb(5,36,38)" stroke-width="1" opacity="1" d="M 106.5 61 L 109 66.5 L 107 67.5 L 106.5 61 Z " /><path fill="rgb(5,36,38)" stroke="rgb(5,36,38)" stroke-width="1" opacity="1" d="M 84.5 65 L 85 67.5 L 84 67.5 L 84.5 65 Z " /><path fill="rgb(5,36,38)" stroke="rgb(5,36,38)" stroke-width="1" opacity="1" d="M 104.5 67 L 108 72.5 L 107 72.5 L 106.5 71 L 104.5 76 L 104 72.5 L 106 69 Q 102.8 70 104.5 67 Z " /><path fill="rgb(5,36,38)" stroke="rgb(5,36,38)" stroke-width="1" opacity="1" d="M 83.5 71 L 84 74.5 L 83 74.5 L 83.5 71 Z " /><path fill="rgb(5,36,38)" stroke="rgb(5,36,38)" stroke-width="1" opacity="1" d="M 86.5 72 L 87 74.5 L 86 74.5 L 86.5 72 Z " /><path fill="rgb(5,36,38)" stroke="rgb(5,36,38)" stroke-width="1" opacity="1" d="M 106.5 74 L 107 78 L 105 77.5 L 106.5 74 Z " /><path fill="rgb(5,36,38)" stroke="rgb(5,36,38)" stroke-width="1" opacity="1" d="M 130.5 79 L 133 86.5 L 131 87 L 130.5 91 Q 128 89.8 129 86 Q 131.7 87.1 131 84.5 Q 128.7 83.1 130.5 79 Z " /><path fill="rgb(5,36,38)" stroke="rgb(5,36,38)" stroke-width="1" opacity="1" d="M 105.5 81 L 106 83.5 L 105 83.5 L 105.5 81 Z " /><path fill="rgb(5,36,38)" stroke="rgb(5,36,38)" stroke-width="1" opacity="1" d="M 134.5 83 L 136 86.5 L 134 87 L 134.5 83 Z " /><path fill="rgb(5,36,38)" stroke="rgb(5,36,38)" stroke-width="1" opacity="1" d="M 104.5 86 L 105 89.5 L 103 88.5 L 104.5 86 Z " /><path fill="rgb(5,36,38)" stroke="rgb(5,36,38)" stroke-width="1" opacity="1" d="M 80.5 88 L 81 90.5 L 80 90.5 L 80.5 88 Z " /><path fill="rgb(5,36,38)" stroke="rgb(5,36,38)" stroke-width="1" opacity="1" d="M 132.5 88 L 134 94.5 L 133 94.5 L 132.5 88 Z " /><path fill="rgb(5,36,38)" stroke="rgb(5,36,38)" stroke-width="1" opacity="1" d="M 134.5 88 L 136 93.5 L 135 93.5 L 134.5 88 Z " /><path fill="rgb(5,36,38)" stroke="rgb(5,36,38)" stroke-width="1" opacity="1" d="M 128.5 91 L 129.5 95 L 131 94.5 Q 131.8 96.8 129.5 96 Q 126.8 94.8 128.5 91 Z " /><path fill="rgb(5,36,38)" stroke="rgb(5,36,38)" stroke-width="1" opacity="1" d="M 102 92 Q 105 91 104 94 Q 101 95 102 92 Z " /><path fill="rgb(5,36,38)" stroke="rgb(5,36,38)" stroke-width="1" opacity="1" d="M 127.5 96 L 122.5 102 L 119 104.5 Q 121.3 105.8 118.5 107 L 116.5 106 L 114 107.5 Q 115.8 103.2 117.5 106 L 119 105.5 L 118 104.5 L 121.5 101 L 127.5 96 Z " /><path fill="rgb(5,36,38)" stroke="rgb(5,36,38)" stroke-width="1" opacity="1" d="M 145.5 96 L 146 100.5 L 145 100.5 L 145.5 96 Z " /><path fill="rgb(5,36,38)" stroke="rgb(5,36,38)" stroke-width="1" opacity="1" d="M 102.5 98 L 103 100.5 L 102 100.5 L 102.5 98 Z " /><path fill="rgb(5,36,38)" stroke="rgb(5,36,38)" stroke-width="1" opacity="1" d="M 150.5 99 L 151 103.5 L 150 103.5 L 150.5 99 Z " /><path fill="rgb(5,36,38)" stroke="rgb(5,36,38)" stroke-width="1" opacity="1" d="M 148.5 100 L 149 102.5 L 147.5 107 L 145 106 L 144 102.5 L 145 102.5 Q 144.3 105.1 147 104 L 148.5 100 Z " /><path fill="rgb(5,36,38)" stroke="rgb(5,36,38)" stroke-width="1" opacity="1" d="M 125.5 101 L 127 101.5 L 124.5 103 L 125.5 101 Z " /><path fill="rgb(5,36,38)" stroke="rgb(5,36,38)" stroke-width="1" opacity="1" d="M 97.5 103 L 98.5 105 L 97.5 103 Z " /><path fill="rgb(5,36,38)" stroke="rgb(5,36,38)" stroke-width="1" opacity="1" d="M 101.5 104 L 102 106.5 L 101 106.5 L 101.5 104 Z " /><path fill="rgb(5,36,38)" stroke="rgb(5,36,38)" stroke-width="1" opacity="1" d="M 77.5 105 L 78 107.5 L 77 107.5 L 77.5 105 Z " /><path fill="rgb(5,36,38)" stroke="rgb(5,36,38)" stroke-width="1" opacity="1" d="M 149.5 105 L 150 108.5 L 148 109.5 L 149.5 105 Z " /><path fill="rgb(5,36,38)" stroke="rgb(5,36,38)" stroke-width="1" opacity="1" d="M 145.5 107 L 147 112 Q 150 110.8 149 114.5 L 148 114.5 L 146.5 112 L 144.5 113 L 145 111.5 L 145.5 107 Z " /><path fill="rgb(5,36,38)" stroke="rgb(5,36,38)" stroke-width="1" opacity="1" d="M 112.5 109 L 111.5 111 L 110 110.5 L 112.5 109 Z " /><path fill="rgb(5,36,38)" stroke="rgb(5,36,38)" stroke-width="1" opacity="1" d="M 114.5 110 L 115.5 112 L 113 111.5 L 114.5 110 Z " /><path fill="rgb(5,36,38)" stroke="rgb(5,36,38)" stroke-width="1" opacity="1" d="M 108.5 112 L 106.5 115 L 108.5 112 Z " /><path fill="rgb(5,36,38)" stroke="rgb(5,36,38)" stroke-width="1" opacity="1" d="M 111.5 112 L 112 114.5 L 110.5 116 L 110 113.5 L 111.5 112 Z " /><path fill="rgb(5,36,38)" stroke="rgb(5,36,38)" stroke-width="1" opacity="1" d="M 97.5 114 L 96.5 116 L 97.5 114 Z " /><path fill="rgb(5,36,38)" stroke="rgb(5,36,38)" stroke-width="1" opacity="1" d="M 146.5 114 L 147 115.5 L 145.5 119 L 145 116.5 L 146.5 114 Z " /><path fill="rgb(5,36,38)" stroke="rgb(5,36,38)" stroke-width="1" opacity="1" d="M 104.5 115 L 103 117.5 Q 103.8 119.8 101.5 119 L 104.5 115 Z " /><path fill="rgb(5,36,38)" stroke="rgb(5,36,38)" stroke-width="1" opacity="1" d="M 147.5 117 L 148 120.5 L 147 120.5 L 147.5 117 Z " /><path fill="rgb(5,36,38)" stroke="rgb(5,36,38)" stroke-width="1" opacity="1" d="M 116.5 121 L 118 123.5 L 113.5 127 L 113.5 126 L 116 124.5 L 116 122.5 L 116.5 121 Z " /><path fill="rgb(5,36,38)" stroke="rgb(5,36,38)" stroke-width="1" opacity="1" d="M 74.5 122 L 75 124.5 L 74 124.5 L 74.5 122 Z " /><path fill="rgb(5,36,38)" stroke="rgb(5,36,38)" stroke-width="1" opacity="1" d="M 124.5 122 L 123.5 124 L 124.5 122 Z " /><path fill="rgb(5,36,38)" stroke="rgb(5,36,38)" stroke-width="1" opacity="1" d="M 146.5 122 L 147 125.5 L 146 125.5 L 146.5 122 Z " /><path fill="rgb(5,36,38)" stroke="rgb(5,36,38)" stroke-width="1" opacity="1" d="M 127.5 127 L 126.5 129 L 127.5 127 Z " /><path fill="rgb(5,36,38)" stroke="rgb(5,36,38)" stroke-width="1" opacity="1" d="M 73.5 128 L 74 130.5 L 73 130.5 L 73.5 128 Z " /><path fill="rgb(5,36,38)" stroke="rgb(5,36,38)" stroke-width="1" opacity="1" d="M 109.5 128 Q 113 130 108.5 132 L 109.5 128 Z " /><path fill="rgb(5,36,38)" stroke="rgb(5,36,38)" stroke-width="1" opacity="1" d="M 145.5 128 L 146 131.5 L 145 131.5 L 145.5 128 Z " /><path fill="rgb(5,36,38)" stroke="rgb(5,36,38)" stroke-width="1" opacity="1" d="M 123.5 133 L 124 135.5 L 123 135.5 L 123.5 133 Z " /><path fill="rgb(5,36,38)" stroke="rgb(5,36,38)" stroke-width="1" opacity="1" d="M 144.5 134 L 145 137.5 L 144 137.5 L 144.5 134 Z " /><path fill="rgb(5,36,38)" stroke="rgb(5,36,38)" stroke-width="1" opacity="1" d="M 96.5 136 L 97.5 138 L 96.5 136 Z " /><path fill="rgb(5,36,38)" stroke="rgb(5,36,38)" stroke-width="1" opacity="1" d="M 120.5 136 L 121 139.5 L 120 139.5 L 120.5 136 Z " /><path fill="rgb(5,36,38)" stroke="rgb(5,36,38)" stroke-width="1" opacity="1" d="M 99.5 138 L 97.5 141 L 99.5 138 Z " /><path fill="rgb(5,36,38)" stroke="rgb(5,36,38)" stroke-width="1" opacity="1" d="M 143.5 140 L 144 142 L 142 141.5 L 143.5 140 Z " /><path fill="rgb(5,36,38)" stroke="rgb(5,36,38)" stroke-width="1" opacity="1" d="M 140.5 143 L 141 145.5 L 140 145.5 L 140.5 143 Z " /><path fill="rgb(5,36,38)" stroke="rgb(5,36,38)" stroke-width="1" opacity="1" d="M 94.5 144 L 95 146.5 L 94 146.5 L 94.5 144 Z " /><path fill="rgb(5,36,38)" stroke="rgb(5,36,38)" stroke-width="1" opacity="1" d="M 142.5 144 L 143 148.5 L 142 148.5 L 142.5 144 Z " /><path fill="rgb(5,36,38)" stroke="rgb(5,36,38)" stroke-width="1" opacity="1" d="M 93.5 149 L 94 151.5 L 93 151.5 L 93.5 149 Z " /><path fill="rgb(5,36,38)" stroke="rgb(5,36,38)" stroke-width="1" opacity="1" d="M 139.5 151 L 140 154.5 L 139 154.5 L 139.5 151 Z " /><path fill="rgb(5,36,38)" stroke="rgb(5,36,38)" stroke-width="1" opacity="1" d="M 141.5 152 L 142 154.5 L 141 154.5 L 141.5 152 Z " /><path fill="rgb(5,36,38)" stroke="rgb(5,36,38)" stroke-width="1" opacity="1" d="M 117.5 153 L 118 156.5 L 117 156.5 L 117.5 153 Z " /><path fill="rgb(5,36,38)" stroke="rgb(5,36,38)" stroke-width="1" opacity="1" d="M 92.5 154 L 93 156.5 L 92 156.5 L 92.5 154 Z " /><path fill="rgb(5,36,38)" stroke="rgb(5,36,38)" stroke-width="1" opacity="1" d="M 140.5 157 L 141 159.5 L 140 159.5 L 140.5 157 Z " /><path fill="rgb(5,36,38)" stroke="rgb(5,36,38)" stroke-width="1" opacity="1" d="M 138.5 158 L 139 159.5 L 137 160.5 L 138.5 158 Z " /><path fill="rgb(5,36,38)" stroke="rgb(5,36,38)" stroke-width="1" opacity="1" d="M 139.5 162 L 140 164.5 L 139 164.5 L 139.5 162 Z " /><path fill="rgb(5,36,38)" stroke="rgb(5,36,38)" stroke-width="1" opacity="1" d="M 90.5 166 L 91 168.5 L 90 168.5 L 90.5 166 Z " /><path fill="rgb(5,36,38)" stroke="rgb(5,36,38)" stroke-width="1" opacity="1" d="M 114.5 170 L 115 172.5 L 114 172.5 L 114.5 170 Z " /><path fill="rgb(5,36,38)" stroke="rgb(5,36,38)" stroke-width="1" opacity="1" d="M 137.5 173 L 138 177.5 L 137 177.5 L 137.5 173 Z " /><path fill="rgb(5,36,38)" stroke="rgb(5,36,38)" stroke-width="1" opacity="1" d="M 113.5 176 L 114 179.5 L 113 179.5 L 113.5 176 Z " /><path fill="rgb(5,36,38)" stroke="rgb(5,36,38)" stroke-width="1" opacity="1" d="M 119.5 179 L 137 179.5 L 119.5 180 L 119.5 179 Z " /><path fill="rgb(213,250,77)" stroke="rgb(213,250,77)" stroke-width="1" opacity="1" d="M 87.5 40 L 96 41.5 L 88.5 42 L 86 41.5 L 87.5 40 Z " /><path fill="rgb(213,250,77)" stroke="rgb(213,250,77)" stroke-width="1" opacity="1" d="M 114.5 40 L 113.5 42 L 114.5 40 Z " /><path fill="rgb(213,250,77)" stroke="rgb(213,250,77)" stroke-width="1" opacity="1" d="M 129.5 43 L 130 47.5 L 128 48.5 L 129.5 43 Z " /><path fill="rgb(213,250,77)" stroke="rgb(213,250,77)" stroke-width="1" opacity="1" d="M 119.5 45 L 120 47 L 118 46.5 L 119.5 45 Z " /><path fill="rgb(213,250,77)" stroke="rgb(213,250,77)" stroke-width="1" opacity="1" d="M 130.5 49 L 133 52.5 L 131 53.5 L 132 51.5 L 130.5 49 Z " /><path fill="rgb(213,250,77)" stroke="rgb(213,250,77)" stroke-width="1" opacity="1" d="M 119.5 50 L 120 52.5 L 119 52.5 L 119.5 50 Z " /><path fill="rgb(213,250,77)" stroke="rgb(213,250,77)" stroke-width="1" opacity="1" d="M 164.5 50 L 168 51.5 L 166 51.5 Q 166.8 53.8 164.5 53 L 164.5 50 Z " /><path fill="rgb(213,250,77)" stroke="rgb(213,250,77)" stroke-width="1" opacity="1" d="M 162.5 51 L 163 52.5 L 161 53.5 L 162.5 51 Z " /><path fill="rgb(213,250,77)" stroke="rgb(213,250,77)" stroke-width="1" opacity="1" d="M 113.5 54 L 114.5 56 L 113.5 54 Z " /><path fill="rgb(213,250,77)" stroke="rgb(213,250,77)" stroke-width="1" opacity="1" d="M 83.5 58 L 84 59.5 L 82 60.5 L 83.5 58 Z " /><path fill="rgb(213,250,77)" stroke="rgb(213,250,77)" stroke-width="1" opacity="1" d="M 110.5 65 L 111.5 67 Q 108.7 67.7 110.5 65 Z " /><path fill="rgb(213,250,77)" stroke="rgb(213,250,77)" stroke-width="1" opacity="1" d="M 159.5 65 L 160 67.5 L 159 67.5 L 159.5 65 Z " /><path fill="rgb(213,250,77)" stroke="rgb(213,250,77)" stroke-width="1" opacity="1" d="M 0 72 L 24 72 L 24 80 L 0 80 L 0 72 Z " /><path fill="rgb(213,250,77)" stroke="rgb(213,250,77)" stroke-width="1" opacity="1" d="M 80.5 72 L 81 75.5 L 80 75.5 L 80.5 72 Z " /><path fill="rgb(213,250,77)" stroke="rgb(213,250,77)" stroke-width="1" opacity="1" d="M 56 80 L 73.5 80 L 74 82.5 L 75.5 85 L 74 85 L 73.5 88 L 56 88 L 56 80 Z " /><path fill="rgb(213,250,77)" stroke="rgb(213,250,77)" stroke-width="1" opacity="1" d="M 75 80 L 77 80.5 L 75 81.5 L 75 80 Z " /><path fill="rgb(213,250,77)" stroke="rgb(213,250,77)" stroke-width="1" opacity="1" d="M 111.5 87 L 112.5 88 L 120 88 L 120 96 L 112 96 Q 112.7 89.1 111.5 87 Z " /><path fill="rgb(213,250,77)" stroke="rgb(213,250,77)" stroke-width="1" opacity="1" d="M 154.5 90 L 156 94 L 154 93.5 L 155 91.5 L 154.5 90 Z " /><path fill="rgb(213,250,77)" stroke="rgb(213,250,77)" stroke-width="1" opacity="1" d="M 160.5 96 L 176 96 L 176 104 L 160.5 104 L 160 102.5 L 160 100.5 L 159.5 98 L 158 102 L 156 101.5 L 160.5 96 Z " /><path fill="rgb(213,250,77)" stroke="rgb(213,250,77)" stroke-width="1" opacity="1" d="M 75.5 99 Q 77.8 98.3 77 100.5 L 75.5 99 Z " /><path fill="rgb(213,250,77)" stroke="rgb(213,250,77)" stroke-width="1" opacity="1" d="M 208 104 L 224 104 L 224 120 L 200 120 L 200 112 L 208 112 L 208 104 Z " /><path fill="rgb(213,250,77)" stroke="rgb(213,250,77)" stroke-width="1" opacity="1" d="M 150.5 116 L 151 118.5 L 150 118.5 L 150.5 116 Z " /><path fill="rgb(213,250,77)" stroke="rgb(213,250,77)" stroke-width="1" opacity="1" d="M 151.5 128 L 152 131.5 L 151 131.5 L 151.5 128 Z " /><path fill="rgb(213,250,77)" stroke="rgb(213,250,77)" stroke-width="1" opacity="1" d="M 66 152 L 68 152.5 L 66 153.5 L 66 152 Z " /><path fill="rgb(213,250,77)" stroke="rgb(213,250,77)" stroke-width="1" opacity="1" d="M 138.5 182 L 141 183.5 L 139.5 183 L 138.5 182 Z " /><path fill="rgb(207,249,72)" stroke="rgb(207,249,72)" stroke-width="1" opacity="1" d="M 107.5 41 L 112 41.5 L 107.5 42 L 107.5 41 Z " /><path fill="rgb(207,249,72)" stroke="rgb(207,249,72)" stroke-width="1" opacity="1" d="M 81.5 64 L 80.5 66 L 81.5 64 Z " /><path fill="rgb(207,249,72)" stroke="rgb(207,249,72)" stroke-width="1" opacity="1" d="M 110.5 86 L 109.5 88 L 110.5 86 Z " /><path fill="rgb(207,249,72)" stroke="rgb(207,249,72)" stroke-width="1" opacity="1" d="M 125.5 89 L 126 93.5 L 125 93.5 L 125.5 89 Z " /><path fill="rgb(207,249,72)" stroke="rgb(207,249,72)" stroke-width="1" opacity="1" d="M 75.5 91 L 76 95 L 74 94.5 L 75.5 91 Z " /><path fill="rgb(207,249,72)" stroke="rgb(207,249,72)" stroke-width="1" opacity="1" d="M 73 96 L 75 96.5 L 73.5 102 L 73 96 Z " /><path fill="rgb(207,249,72)" stroke="rgb(207,249,72)" stroke-width="1" opacity="1" d="M 114.5 96 L 117 96.5 L 114.5 97 L 114.5 96 Z " /><path fill="rgb(207,249,72)" stroke="rgb(207,249,72)" stroke-width="1" opacity="1" d="M 156.5 98 L 155.5 100 L 156.5 98 Z " /><path fill="rgb(207,249,72)" stroke="rgb(207,249,72)" stroke-width="1" opacity="1" d="M 72.5 106 L 74 111.5 L 72 112 L 72.5 106 Z " /><path fill="rgb(207,249,72)" stroke="rgb(207,249,72)" stroke-width="1" opacity="1" d="M 72 113 Q 75 112 74 115 Q 71 116 72 113 Z " /><path fill="rgb(207,249,72)" stroke="rgb(207,249,72)" stroke-width="1" opacity="1" d="M 0 128 L 23.5 128 L 24 128.5 L 24 135.5 L 24.5 136 L 64.5 136 L 67 140.5 L 65.5 143 L 64.5 137 L 64 145.5 L 64 147.5 L 65 155.5 L 64 158.5 L 64.5 160 L 40.5 160 L 40 159.5 L 40 152.5 L 39.5 152 L 0 152 L 0 128 Z " /><path fill="rgb(207,249,72)" stroke="rgb(207,249,72)" stroke-width="1" opacity="1" d="M 64.5 128 L 66.5 129 L 68 128.5 Q 66.8 131.3 65.5 129 L 64.5 128 Z " /><path fill="rgb(207,249,72)" stroke="rgb(207,249,72)" stroke-width="1" opacity="1" d="M 118.5 130 L 119.5 132 L 118.5 130 Z " /><path fill="rgb(207,249,72)" stroke="rgb(207,249,72)" stroke-width="1" opacity="1" d="M 149.5 130 L 150 131.5 L 149.5 133 L 152 133.5 L 150.5 135 Q 148.8 131.9 147 133.5 L 149.5 130 Z " /><path fill="rgb(207,249,72)" stroke="rgb(207,249,72)" stroke-width="1" opacity="1" d="M 64.5 132 L 65 134.5 L 64 134.5 L 64.5 132 Z " /><path fill="rgb(207,249,72)" stroke="rgb(207,249,72)" stroke-width="1" opacity="1" d="M 67 132 L 69 132.5 L 67 133.5 L 67 132 Z " /><path fill="rgb(207,249,72)" stroke="rgb(207,249,72)" stroke-width="1" opacity="1" d="M 68 136 Q 70.7 134.9 70 137.5 L 68.5 140 L 68 136 Z " /><path fill="rgb(207,249,72)" stroke="rgb(207,249,72)" stroke-width="1" opacity="1" d="M 114.5 136 L 114 137.5 L 115 139.5 L 113 138.5 L 114.5 136 Z " /><path fill="rgb(207,249,72)" stroke="rgb(207,249,72)" stroke-width="1" opacity="1" d="M 148 139 L 150 139.5 L 148 140.5 L 148 139 Z " /><path fill="rgb(207,249,72)" stroke="rgb(207,249,72)" stroke-width="1" opacity="1" d="M 112 141 L 114 141.5 L 113.5 144 L 112 141 Z " /><path fill="rgb(207,249,72)" stroke="rgb(207,249,72)" stroke-width="1" opacity="1" d="M 146.5 141 L 145.5 143 L 146.5 141 Z " /><path fill="rgb(207,249,72)" stroke="rgb(207,249,72)" stroke-width="1" opacity="1" d="M 96 144 L 111.5 144 Q 112.5 144 112 148.5 L 113 148.5 L 114.5 145 L 116 147.5 L 114 147.5 L 114 150 Q 111.3 148.9 112 151.5 L 112 153.5 L 113 158.5 L 112 161.5 L 113 163.5 L 112 165.5 L 113 168 L 96.5 168 L 95 166.5 L 96 163.5 L 93 163 L 93.5 161 L 96 162 L 95 155.5 L 96 152.5 L 96 144 Z " /><path fill="rgb(207,249,72)" stroke="rgb(207,249,72)" stroke-width="1" opacity="1" d="M 144 152 L 175.5 152 L 176 152.5 L 176 159.5 L 176.5 160 L 224 160 L 224 184 L 208 184 L 208 176 L 200 176 L 200 184 L 192 184 L 192 176 L 152.5 176 L 152 175.5 L 152 168 L 144 168 L 144 165.5 L 143 163.5 L 144 159 L 142 158.5 Q 145.3 157 144 152 Z " /><path fill="rgb(207,249,72)" stroke="rgb(207,249,72)" stroke-width="1" opacity="1" d="M 114.5 156 L 115 158.5 L 114 158.5 L 114.5 156 Z " /><path fill="rgb(207,249,72)" stroke="rgb(207,249,72)" stroke-width="1" opacity="1" d="M 92.5 168 L 93 171.5 L 91 172.5 L 92.5 168 Z " /><path fill="rgb(207,249,72)" stroke="rgb(207,249,72)" stroke-width="1" opacity="1" d="M 142.5 168 L 142 169.5 Q 143.5 173.9 140.5 173 L 141 171.5 L 142.5 168 Z " /><path fill="rgb(207,249,72)" stroke="rgb(207,249,72)" stroke-width="1" opacity="1" d="M 143.5 170 L 144 173.5 L 143 173.5 L 143.5 170 Z " /><path fill="rgb(207,249,72)" stroke="rgb(207,249,72)" stroke-width="1" opacity="1" d="M 94.5 171 L 95.5 173 L 94.5 171 Z " /><path fill="rgb(207,249,72)" stroke="rgb(207,249,72)" stroke-width="1" opacity="1" d="M 104 176 L 111 176 L 111 184 L 104 184 L 104 176 Z " /><path fill="rgb(207,249,72)" stroke="rgb(207,249,72)" stroke-width="1" opacity="1" d="M 142.5 177 Q 145.5 178.5 142.5 180 L 141 179.5 L 143 178.5 L 142.5 177 Z " /><path fill="rgb(207,249,72)" stroke="rgb(207,249,72)" stroke-width="1" opacity="1" d="M 61.5 178 L 61 179.5 L 63 182.5 L 59 179.5 L 61.5 178 Z " /><path fill="rgb(207,249,72)" stroke="rgb(207,249,72)" stroke-width="1" opacity="1" d="M 71.5 182 L 88 182.5 L 71.5 183 L 71.5 182 Z " /><path fill="rgb(207,249,72)" stroke="rgb(207,249,72)" stroke-width="1" opacity="1" d="M 113.5 182 L 116 183.5 L 114.5 183 L 113.5 182 Z " /><path fill="rgb(207,249,72)" stroke="rgb(207,249,72)" stroke-width="1" opacity="1" d="M 136.5 182 L 137.5 184 L 119 183.5 L 135.5 183 L 136.5 182 Z " /><path fill="rgb(8,56,62)" stroke="rgb(8,56,62)" stroke-width="1" opacity="1" d="M 86.5 61 L 87 63.5 L 84.5 65 L 84.5 64 Q 87.4 64.7 86.5 61 Z " /><path fill="rgb(8,56,62)" stroke="rgb(8,56,62)" stroke-width="1" opacity="1" d="M 87.5 72 L 88 75.5 L 87 75.5 L 87.5 72 Z " /><path fill="rgb(8,56,62)" stroke="rgb(8,56,62)" stroke-width="1" opacity="1" d="M 105 72 Q 107.7 70.9 107 73.5 L 105.5 76 L 105 72 Z " /><path fill="rgb(8,56,62)" stroke="rgb(8,56,62)" stroke-width="1" opacity="1" d="M 83.5 77 L 84 79.5 L 83.5 82 Q 80.9 82.8 82 79.5 L 83.5 77 Z " /><path fill="rgb(8,56,62)" stroke="rgb(8,56,62)" stroke-width="1" opacity="1" d="M 82.5 83 L 83 90.5 L 82 90.5 L 81 86.5 L 82.5 83 Z " /><path fill="rgb(8,56,62)" stroke="rgb(8,56,62)" stroke-width="1" opacity="1" d="M 84.5 86 L 87.5 88 L 86.5 90 L 84.5 86 Z " /><path fill="rgb(8,56,62)" stroke="rgb(8,56,62)" stroke-width="1" opacity="1" d="M 96.5 98 L 97 103.5 L 96 103.5 L 96.5 98 Z " /><path fill="rgb(8,56,62)" stroke="rgb(8,56,62)" stroke-width="1" opacity="1" d="M 125.5 99 L 127 99.5 L 123.5 102 L 125.5 99 Z " /><path fill="rgb(8,56,62)" stroke="rgb(8,56,62)" stroke-width="1" opacity="1" d="M 127.5 101 L 125.5 104 L 123 103.5 L 127.5 101 Z " /><path fill="rgb(8,56,62)" stroke="rgb(8,56,62)" stroke-width="1" opacity="1" d="M 146.5 101 L 147 103.5 L 146 103.5 L 146.5 101 Z " /><path fill="rgb(8,56,62)" stroke="rgb(8,56,62)" stroke-width="1" opacity="1" d="M 78.5 103 L 80 104.5 L 80 112 L 88 112 L 88 120 L 96 120 L 96 135.5 L 93 137.5 L 96.5 139 L 97.5 136 L 99.5 136 L 101 136.5 L 99 137 L 96.5 141 Q 94.7 138.3 93 142.5 L 92 147.5 Q 94.3 148.8 93 153.5 L 90 159.5 L 91 163.5 L 88 179 L 66.5 179 L 66 177.5 L 66 175.5 L 67 167.5 Q 64.8 166.3 67.5 165 Q 70.5 165.7 69 162 L 67 161.5 L 69 159.5 L 70 150.5 L 69.5 149 L 72 147.5 L 71 142.5 L 73 134.5 L 72 132.5 L 74 132.5 L 75 122.5 Q 72.5 121 76 119.5 L 77.5 112 L 78 115.5 L 77 118.5 Q 79.8 119.8 79.5 124 L 80 118.5 L 79 114.5 L 79 112.5 Q 79.7 105 78.5 103 Z M 76 120 L 77 124 L 78 122 Q 79 119 76 120 Z M 79 126 Q 74 128 77 130 Q 76 133 79 132 L 78 131 L 79 128 L 79 126 Z M 90 138 L 88 142 Q 87 144 90 143 L 90 138 Z M 91 144 L 90 147 L 91 147 L 91 144 Z M 89 146 L 88 153 L 89 153 L 89 146 Z M 92 149 L 91 152 L 92 152 L 92 149 Z M 90 160 L 89 163 L 90 163 L 90 160 Z M 72 165 L 71 168 L 72 168 L 72 165 Z " /><path fill="rgb(8,56,62)" stroke="rgb(8,56,62)" stroke-width="1" opacity="1" d="M 120.5 103 L 118.5 106 L 120.5 103 Z " /><path fill="rgb(8,56,62)" stroke="rgb(8,56,62)" stroke-width="1" opacity="1" d="M 116.5 106 Q 119.5 107.5 116.5 109 L 110 113.5 Q 113.5 115 111 116.5 L 112 118.5 L 110.5 118 L 107.5 120 L 111 115.5 L 109.5 114 L 108 114.5 Q 110.3 115.8 107.5 117 L 105 115.5 L 106.5 116 L 108 115.5 Q 105.8 114.3 108.5 113 L 115 108.5 L 116.5 106 Z " /><path fill="rgb(8,56,62)" stroke="rgb(8,56,62)" stroke-width="1" opacity="1" d="M 98.5 107 L 99 110.5 L 98 110.5 L 98.5 107 Z " /><path fill="rgb(8,56,62)" stroke="rgb(8,56,62)" stroke-width="1" opacity="1" d="M 147.5 109 L 148 111.5 L 147 111.5 L 147.5 109 Z " /><path fill="rgb(8,56,62)" stroke="rgb(8,56,62)" stroke-width="1" opacity="1" d="M 117.5 110 L 118.5 112 Q 115.7 112.7 117.5 110 Z " /><path fill="rgb(8,56,62)" stroke="rgb(8,56,62)" stroke-width="1" opacity="1" d="M 96.5 113 L 97 115 Q 99.7 116.1 99 113.5 L 100 113.5 L 99 117 L 97 117.5 L 100 119.5 L 98.5 119 L 96 117.5 L 97 115.5 L 96.5 113 Z " /><path fill="rgb(8,56,62)" stroke="rgb(8,56,62)" stroke-width="1" opacity="1" d="M 104.5 117 L 103.5 119 L 104.5 117 Z " /><path fill="rgb(8,56,62)" stroke="rgb(8,56,62)" stroke-width="1" opacity="1" d="M 116.5 120 L 117.5 122 L 116.5 120 Z " /><path fill="rgb(8,56,62)" stroke="rgb(8,56,62)" stroke-width="1" opacity="1" d="M 124.5 120 L 123.5 122 L 124.5 120 Z " /><path fill="rgb(8,56,62)" stroke="rgb(8,56,62)" stroke-width="1" opacity="1" d="M 114.5 121 L 116.5 124 L 113 123 L 112.5 125 L 112 123.5 L 114.5 121 Z " /><path fill="rgb(8,56,62)" stroke="rgb(8,56,62)" stroke-width="1" opacity="1" d="M 124 123 Q 127 122 126 125 Q 123 126 124 123 Z " /><path fill="rgb(8,56,62)" stroke="rgb(8,56,62)" stroke-width="1" opacity="1" d="M 105.5 128 Q 109.3 127.3 110 129.5 Q 108.8 132.3 107.5 130 L 105 131.5 L 105.5 133 Q 103.3 133.8 104 131.5 Q 107.1 129.8 105.5 128 Z " /><path fill="rgb(8,56,62)" stroke="rgb(8,56,62)" stroke-width="1" opacity="1" d="M 122.5 132 L 123 138.5 L 122 138.5 L 121 134.5 L 122.5 132 Z " /><path fill="rgb(8,56,62)" stroke="rgb(8,56,62)" stroke-width="1" opacity="1" d="M 125.5 134 L 126 136 L 124 135.5 L 125.5 134 Z " /><path fill="rgb(8,56,62)" stroke="rgb(8,56,62)" stroke-width="1" opacity="1" d="M 142.5 143 L 144 143.5 L 142 144 L 141.5 148 L 141 144.5 L 142.5 143 Z " /><path fill="rgb(8,56,62)" stroke="rgb(8,56,62)" stroke-width="1" opacity="1" d="M 118.5 150 Q 121.5 153.1 120 160 L 128 160 L 128 176 L 120 176.5 L 135.5 177 L 137 176.5 L 135.5 179 L 118.5 179 L 118 177.5 L 119.5 175 Q 116.2 176.1 117 173.5 L 116 173.5 L 117 179 Q 112.1 180.8 114 174.5 L 115.5 171 L 117 171.5 Q 117.8 168.9 114.5 170 L 116 167.5 Q 115.2 162.2 118 160.5 L 117 157.5 L 118 157.5 L 118.5 160 L 119 155.5 L 119 153.5 L 118.5 152 L 117 152.5 L 118.5 150 Z M 119 164 L 117 166 Q 116 169 119 168 L 119 164 Z " /><path fill="rgb(8,56,62)" stroke="rgb(8,56,62)" stroke-width="1" opacity="1" d="M 136.5 150 L 138 154.5 L 137 154.5 L 136.5 150 Z " /><path fill="rgb(8,56,62)" stroke="rgb(8,56,62)" stroke-width="1" opacity="1" d="M 137.5 156 L 138 160 Q 140.7 158.9 140 161.5 L 138.5 164 L 138 160 L 136 159.5 L 137.5 156 Z " /><path fill="rgb(8,56,62)" stroke="rgb(8,56,62)" stroke-width="1" opacity="1" d="M 136 166 Q 140 164.6 138 171.5 L 136 172.5 L 137 168.5 L 136 166 Z " /><path fill="rgb(6,45,50)" stroke="rgb(6,45,50)" stroke-width="1" opacity="1" d="M 88 47 L 103.5 47 L 105 48.5 L 105 50.5 L 104 54.5 L 105.5 59 Q 105 52 107.5 48 L 108 51.5 L 108 53.5 L 108 56 Q 110.7 54.9 110 57.5 L 107.5 62 L 106.5 59 L 105 64 Q 108 62.8 107 66.5 L 104 67.5 L 105 71.5 L 104 76 L 106 76.5 L 106 78.5 L 104.5 83 L 104 80 L 96 80 L 96 72 L 86.5 72 L 85 71.5 Q 85.6 76.6 82.5 78 L 83 76.5 L 85.5 70 L 87 69.5 L 84 68.5 L 86 68 L 85 65.5 L 88 66.5 L 87 63.5 L 88 61.5 L 88 59.5 L 87.5 58 L 86 58.5 L 88 55.5 L 88 53.5 L 88 47 Z " /><path fill="rgb(6,45,50)" stroke="rgb(6,45,50)" stroke-width="1" opacity="1" d="M 109.5 48 L 110.5 50 Q 107.7 50.7 109.5 48 Z " /><path fill="rgb(6,45,50)" stroke="rgb(6,45,50)" stroke-width="1" opacity="1" d="M 109 51 L 111 51.5 L 109.5 55 L 109 51 Z " /><path fill="rgb(6,45,50)" stroke="rgb(6,45,50)" stroke-width="1" opacity="1" d="M 154.5 55 L 155.5 57 L 154.5 55 Z " /><path fill="rgb(6,45,50)" stroke="rgb(6,45,50)" stroke-width="1" opacity="1" d="M 153 61 L 155 61.5 L 153.5 64 L 153 61 Z " /><path fill="rgb(6,45,50)" stroke="rgb(6,45,50)" stroke-width="1" opacity="1" d="M 134.5 64 L 136 67.5 L 135 67.5 L 134.5 64 Z " /><path fill="rgb(6,45,50)" stroke="rgb(6,45,50)" stroke-width="1" opacity="1" d="M 135.5 69 L 136 72.5 L 133 74.5 L 135 75 L 133.5 79 L 132 74.5 L 133.5 72 L 135 72.5 L 135.5 69 Z " /><path fill="rgb(6,45,50)" stroke="rgb(6,45,50)" stroke-width="1" opacity="1" d="M 107.5 70 L 106.5 72 L 107.5 70 Z " /><path fill="rgb(6,45,50)" stroke="rgb(6,45,50)" stroke-width="1" opacity="1" d="M 86.5 75 L 87 76.5 L 86 81 L 84 80.5 L 86.5 75 Z " /><path fill="rgb(6,45,50)" stroke="rgb(6,45,50)" stroke-width="1" opacity="1" d="M 131.5 80 L 132.5 82 L 131.5 80 Z " /><path fill="rgb(6,45,50)" stroke="rgb(6,45,50)" stroke-width="1" opacity="1" d="M 136 80 L 144 80 L 144 88 L 147 88.5 L 147 95.5 L 148 97.5 L 145 96.5 L 144 98.5 L 146 103.5 L 144 107.5 L 145 109.5 L 144 115 L 146 115.5 L 145 119.5 L 147 119.5 L 145 121.5 L 146 124.5 Q 146.8 126.8 144.5 126 L 144 130.5 L 145 133.5 L 144 136 L 142 136.5 L 144 137.5 L 140.5 138 L 136 137 L 136 120 L 128 120 L 128 112 L 120.5 112 L 120 110.5 L 118 110.5 L 119 108.5 L 118.5 107 L 120 107.5 Q 119.3 103.8 121.5 103 L 125.5 104 L 127.5 101 L 125 100.5 L 127 100 L 128 96 L 132 95.5 L 129 94.5 L 130 91.5 L 129.5 90 L 131 90.5 L 133 86.5 L 132 83 Q 135.5 81.9 134 89.5 L 135 89.5 L 136 86.5 L 135 84.5 L 136 80 Z M 133 88 L 132 91 L 133 91 L 133 88 Z M 136 90 L 133 91 L 134 95 L 136 94 L 136 90 Z M 145 101 L 144 104 L 145 104 L 145 101 Z " /><path fill="rgb(6,45,50)" stroke="rgb(6,45,50)" stroke-width="1" opacity="1" d="M 82.5 82 L 86 82.5 L 84 83 Q 82.9 85.7 85.5 85 L 85.5 86 L 83 84.5 L 82.5 82 Z " /><path fill="rgb(6,45,50)" stroke="rgb(6,45,50)" stroke-width="1" opacity="1" d="M 130.5 84 L 129.5 86 L 130.5 84 Z " /><path fill="rgb(6,45,50)" stroke="rgb(6,45,50)" stroke-width="1" opacity="1" d="M 96.5 88 L 101.5 89 L 103 88.5 L 102 90.5 L 102 92.5 Q 101.3 94.8 103.5 94 L 103.5 95 L 101 95.5 L 103 96 L 101 100.5 L 102 103 Q 99 104.3 100 100.5 L 99 98 L 102 97.5 L 99 96.5 L 101 92.5 L 100 89 Q 95.6 90 96.5 88 Z " /><path fill="rgb(6,45,50)" stroke="rgb(6,45,50)" stroke-width="1" opacity="1" d="M 87.5 90 L 88 93.5 L 87 93.5 L 87.5 90 Z " /><path fill="rgb(6,45,50)" stroke="rgb(6,45,50)" stroke-width="1" opacity="1" d="M 149.5 99 L 150 102.5 L 149 102.5 L 149.5 99 Z " /><path fill="rgb(6,45,50)" stroke="rgb(6,45,50)" stroke-width="1" opacity="1" d="M 79.5 101 L 80 103 L 78 102.5 L 79.5 101 Z " /><path fill="rgb(6,45,50)" stroke="rgb(6,45,50)" stroke-width="1" opacity="1" d="M 97.5 106 L 98 110 Q 95.3 111.1 96 108.5 L 97.5 106 Z " /><path fill="rgb(6,45,50)" stroke="rgb(6,45,50)" stroke-width="1" opacity="1" d="M 145.5 106 L 148 107.5 L 146.5 107 L 145.5 106 Z " /><path fill="rgb(6,45,50)" stroke="rgb(6,45,50)" stroke-width="1" opacity="1" d="M 99.5 109 L 101 111.5 Q 99.5 114.5 98 111.5 L 100 110.5 L 99.5 109 Z " /><path fill="rgb(6,45,50)" stroke="rgb(6,45,50)" stroke-width="1" opacity="1" d="M 115.5 110 L 116.5 112 L 115.5 110 Z " /><path fill="rgb(6,45,50)" stroke="rgb(6,45,50)" stroke-width="1" opacity="1" d="M 96.5 112 L 98.5 115 L 96.5 112 Z " /><path fill="rgb(6,45,50)" stroke="rgb(6,45,50)" stroke-width="1" opacity="1" d="M 145.5 112 Q 147.8 111.3 147 113.5 L 145.5 112 Z " /><path fill="rgb(6,45,50)" stroke="rgb(6,45,50)" stroke-width="1" opacity="1" d="M 106.5 115 L 105.5 117 L 103.5 118 L 104.5 116 L 106.5 115 Z " /><path fill="rgb(6,45,50)" stroke="rgb(6,45,50)" stroke-width="1" opacity="1" d="M 108.5 116 L 110 116.5 L 106.5 119 L 108.5 116 Z " /><path fill="rgb(6,45,50)" stroke="rgb(6,45,50)" stroke-width="1" opacity="1" d="M 110.5 118 L 111 120 L 108 119.5 L 110.5 118 Z " /><path fill="rgb(6,45,50)" stroke="rgb(6,45,50)" stroke-width="1" opacity="1" d="M 117.5 120 L 120 121.5 L 119.5 123 L 117.5 120 Z " /><path fill="rgb(6,45,50)" stroke="rgb(6,45,50)" stroke-width="1" opacity="1" d="M 113.5 121 L 112.5 123 L 113.5 121 Z " /><path fill="rgb(6,45,50)" stroke="rgb(6,45,50)" stroke-width="1" opacity="1" d="M 124.5 121 L 128 126.5 L 126.5 127 Q 123.7 125.8 126 124.5 L 124.5 121 Z " /><path fill="rgb(6,45,50)" stroke="rgb(6,45,50)" stroke-width="1" opacity="1" d="M 114.5 124 L 113.5 126 L 114.5 124 Z " /><path fill="rgb(6,45,50)" stroke="rgb(6,45,50)" stroke-width="1" opacity="1" d="M 78.5 127 L 78 128.5 L 77.5 131 L 77 128.5 L 78.5 127 Z " /><path fill="rgb(6,45,50)" stroke="rgb(6,45,50)" stroke-width="1" opacity="1" d="M 123.5 127 L 126 128 L 125.5 130 L 123.5 129 L 124 130.5 L 125 133.5 L 122 131.5 Q 121.3 127.8 123.5 127 Z " /><path fill="rgb(6,45,50)" stroke="rgb(6,45,50)" stroke-width="1" opacity="1" d="M 127.5 128 L 128 136 Q 125 137.3 126 133.5 L 127.5 128 Z " /><path fill="rgb(6,45,50)" stroke="rgb(6,45,50)" stroke-width="1" opacity="1" d="M 108.5 129 L 107.5 131 L 108.5 129 Z " /><path fill="rgb(6,45,50)" stroke="rgb(6,45,50)" stroke-width="1" opacity="1" d="M 98.5 136 L 100.5 137 L 102 136.5 L 99.5 138 L 98.5 136 Z " /><path fill="rgb(6,45,50)" stroke="rgb(6,45,50)" stroke-width="1" opacity="1" d="M 121.5 136 L 122 138.5 L 121 138.5 L 121.5 136 Z " /><path fill="rgb(6,45,50)" stroke="rgb(6,45,50)" stroke-width="1" opacity="1" d="M 95.5 137 L 96.5 139 L 95.5 137 Z " /><path fill="rgb(6,45,50)" stroke="rgb(6,45,50)" stroke-width="1" opacity="1" d="M 138.5 139 L 139.5 141 L 137 140.5 L 138.5 139 Z " /><path fill="rgb(6,45,50)" stroke="rgb(6,45,50)" stroke-width="1" opacity="1" d="M 141 142 L 144 142.5 L 141.5 144 L 141 142 Z " /><path fill="rgb(6,45,50)" stroke="rgb(6,45,50)" stroke-width="1" opacity="1" d="M 136.5 143 L 138 145.5 L 137 145.5 L 136.5 143 Z " /><path fill="rgb(6,45,50)" stroke="rgb(6,45,50)" stroke-width="1" opacity="1" d="M 139.5 143 L 141 146.5 L 139 145.5 L 139.5 143 Z " /><path fill="rgb(6,45,50)" stroke="rgb(6,45,50)" stroke-width="1" opacity="1" d="M 119.5 148 L 120 151.5 L 119 151.5 L 118 149.5 L 119.5 148 Z " /><path fill="rgb(6,45,50)" stroke="rgb(6,45,50)" stroke-width="1" opacity="1" d="M 141.5 148 L 142 150.5 L 141 150.5 L 141.5 148 Z " /><path fill="rgb(6,45,50)" stroke="rgb(6,45,50)" stroke-width="1" opacity="1" d="M 139.5 149 L 140 150.5 L 138.5 154 L 138 151.5 L 139.5 149 Z " /><path fill="rgb(6,45,50)" stroke="rgb(6,45,50)" stroke-width="1" opacity="1" d="M 136.5 154 L 137.5 156 L 136.5 154 Z " /><path fill="rgb(6,45,50)" stroke="rgb(6,45,50)" stroke-width="1" opacity="1" d="M 68.5 157 L 70 160.5 L 68 159.5 L 68.5 157 Z " /><path fill="rgb(6,45,50)" stroke="rgb(6,45,50)" stroke-width="1" opacity="1" d="M 117.5 160 L 116.5 162 L 117.5 160 Z " /><path fill="rgb(6,45,50)" stroke="rgb(6,45,50)" stroke-width="1" opacity="1" d="M 118.5 166 L 120 168.5 L 118 167.5 L 118.5 166 Z " /><path fill="rgb(6,45,50)" stroke="rgb(6,45,50)" stroke-width="1" opacity="1" d="M 67.5 179 L 70 179.5 L 67.5 180 L 67.5 179 Z " /><path fill="rgb(6,45,50)" stroke="rgb(6,45,50)" stroke-width="1" opacity="1" d="M 72.5 179 L 88 179.5 L 72.5 180 L 72.5 179 Z " /><path fill="rgb(209,249,74)" stroke="rgb(209,249,74)" stroke-width="1" opacity="1" d="M 80.5 51 L 81 55.5 L 80 55.5 L 80.5 51 Z " /><path fill="rgb(209,249,74)" stroke="rgb(209,249,74)" stroke-width="1" opacity="1" d="M 116.5 51 L 114.5 54 L 114 52 L 116.5 51 Z " /><path fill="rgb(209,249,74)" stroke="rgb(209,249,74)" stroke-width="1" opacity="1" d="M 164.5 51 L 164 52.5 L 163.5 54 L 163 52.5 L 164.5 51 Z " /><path fill="rgb(209,249,74)" stroke="rgb(209,249,74)" stroke-width="1" opacity="1" d="M 130.5 52 L 131 54.5 L 130 54.5 L 130.5 52 Z " /><path fill="rgb(209,249,74)" stroke="rgb(209,249,74)" stroke-width="1" opacity="1" d="M 75.5 90 L 74.5 92 L 75.5 90 Z " /><path fill="rgb(209,249,74)" stroke="rgb(209,249,74)" stroke-width="1" opacity="1" d="M 0 96 L 8 96 L 8 103.5 L 8.5 104 L 56 104 L 56 112 L 72 112 L 72 127.5 Q 70.7 130.3 69.5 128 L 67 128.5 L 67.5 132 Q 65.3 132.8 66 130.5 Q 68.3 129.3 65.5 128 L 64 128.5 L 64 135.5 L 63.5 136 L 24 136 L 24 128 L 0 128 L 0 96 Z " /><path fill="rgb(209,249,74)" stroke="rgb(209,249,74)" stroke-width="1" opacity="1" d="M 159.5 98 L 160 99.5 L 158.5 104 L 158 100.5 L 159.5 98 Z " /><path fill="rgb(209,249,74)" stroke="rgb(209,249,74)" stroke-width="1" opacity="1" d="M 156.5 99 L 157 101 Q 154 99.8 155 103.5 L 154 103.5 Q 152.5 99.1 155.5 100 L 156.5 99 Z " /><path fill="rgb(209,249,74)" stroke="rgb(209,249,74)" stroke-width="1" opacity="1" d="M 73.5 109 L 74.5 111 Q 71.7 111.7 73.5 109 Z " /><path fill="rgb(209,249,74)" stroke="rgb(209,249,74)" stroke-width="1" opacity="1" d="M 152 120 L 168 120 L 168 127.5 L 168.5 128 L 207.5 128 L 208 128.5 L 208 136 L 216 136 L 216 128 L 224 128 L 224 160 L 176 160 L 176 152 L 146.5 152 L 146 151.5 L 146 144 L 152 144 L 152 139 L 150 138.5 L 152 138 L 152 120 Z " /><path fill="rgb(209,249,74)" stroke="rgb(209,249,74)" stroke-width="1" opacity="1" d="M 104 136 L 112 136 L 112 144 L 104 144 L 104 136 Z " /><path fill="rgb(202,246,69)" stroke="rgb(202,246,69)" stroke-width="1" opacity="1" d="M 109.5 105 L 108.5 107 L 109.5 105 Z " /><path fill="rgb(202,246,69)" stroke="rgb(202,246,69)" stroke-width="1" opacity="1" d="M 108.5 109 L 107.5 111 L 105.5 112 L 106.5 110 L 108.5 109 Z " /><path fill="rgb(202,246,69)" stroke="rgb(202,246,69)" stroke-width="1" opacity="1" d="M 65.5 135 L 66.5 137 L 65.5 135 Z " /><path fill="rgb(202,246,69)" stroke="rgb(202,246,69)" stroke-width="1" opacity="1" d="M 100.5 139 L 104 141.5 L 103 144 L 101 143.5 L 102 141.5 L 100.5 139 Z " /><path fill="rgb(202,246,69)" stroke="rgb(202,246,69)" stroke-width="1" opacity="1" d="M 66.5 141 L 67 143.5 L 66 143.5 L 66.5 141 Z " /><path fill="rgb(202,246,69)" stroke="rgb(202,246,69)" stroke-width="1" opacity="1" d="M 66.5 146 L 67 151.5 L 66 151.5 L 66.5 146 Z " /><path fill="rgb(202,246,69)" stroke="rgb(202,246,69)" stroke-width="1" opacity="1" d="M 64.5 147 L 65 149.5 L 64 149.5 L 64.5 147 Z " /><path fill="rgb(202,246,69)" stroke="rgb(202,246,69)" stroke-width="1" opacity="1" d="M 115.5 148 L 116 149.5 L 115 152 Q 112 153 113 150 Q 115.8 151 115.5 148 Z " /><path fill="rgb(202,246,69)" stroke="rgb(202,246,69)" stroke-width="1" opacity="1" d="M 113.5 158 L 114 159.5 L 112.5 162 L 112 160.5 L 113.5 158 Z " /><path fill="rgb(202,246,69)" stroke="rgb(202,246,69)" stroke-width="1" opacity="1" d="M 92.5 163 Q 95.8 161.9 95 164.5 L 93.5 164 L 92.5 163 Z " /><path fill="rgb(202,246,69)" stroke="rgb(202,246,69)" stroke-width="1" opacity="1" d="M 140.5 165 L 141 167.5 L 140 167.5 L 140.5 165 Z " /><path fill="rgb(202,246,69)" stroke="rgb(202,246,69)" stroke-width="1" opacity="1" d="M 93.5 170 L 94 174.5 L 93 174.5 L 93.5 170 Z " /><path fill="rgb(202,246,69)" stroke="rgb(202,246,69)" stroke-width="1" opacity="1" d="M 142.5 170 L 143 172.5 L 142 175.5 L 143 175.5 L 143.5 174 L 144 175.5 L 143.5 178 Q 140.5 177.5 141 173.5 L 142.5 170 Z " /><path fill="rgb(202,246,69)" stroke="rgb(202,246,69)" stroke-width="1" opacity="1" d="M 61.5 176 L 63 176.5 L 59.5 179 L 57 177.5 L 61.5 176 Z " /><path fill="rgb(202,246,69)" stroke="rgb(202,246,69)" stroke-width="1" opacity="1" d="M 92.5 176 L 91.5 178 L 92.5 176 Z " /><path fill="rgb(202,246,69)" stroke="rgb(202,246,69)" stroke-width="1" opacity="1" d="M 94.5 176 L 95.5 178 Q 93.3 177.3 94 179.5 L 93 179.5 L 94.5 176 Z " /><path fill="rgb(202,246,69)" stroke="rgb(202,246,69)" stroke-width="1" opacity="1" d="M 138.5 176 L 139.5 178 L 138.5 176 Z " /><path fill="rgb(202,246,69)" stroke="rgb(202,246,69)" stroke-width="1" opacity="1" d="M 62 179 L 64.5 180 L 88 180.5 L 68.5 181 L 67.5 182 L 62 181 L 62 179 Z " /><path fill="rgb(202,246,69)" stroke="rgb(202,246,69)" stroke-width="1" opacity="1" d="M 143.5 179 L 144 181.5 L 143 181.5 L 143.5 179 Z " /><path fill="rgb(202,246,69)" stroke="rgb(202,246,69)" stroke-width="1" opacity="1" d="M 112 180 L 114 180.5 L 112 181.5 L 112 180 Z " /><path fill="rgb(202,246,69)" stroke="rgb(202,246,69)" stroke-width="1" opacity="1" d="M 116.5 180 L 136 180.5 L 120 181.5 L 136 182.5 L 120.5 183 L 119 182.5 L 118.5 184 L 118 182.5 L 118.5 181 Q 115.5 181.5 116.5 180 Z " /><path fill="rgb(202,246,69)" stroke="rgb(202,246,69)" stroke-width="1" opacity="1" d="M 59.5 181 Q 62.1 180.3 61 183 L 57 182.5 L 59.5 181 Z " /><path fill="rgb(202,246,69)" stroke="rgb(202,246,69)" stroke-width="1" opacity="1" d="M 92.5 181 L 94.5 181 L 96 181.5 L 93.5 183 L 92.5 181 Z " /><path fill="rgb(202,246,69)" stroke="rgb(202,246,69)" stroke-width="1" opacity="1" d="M 88.5 182 L 89.5 184 L 87.5 184 L 68 183.5 L 87.5 183 L 88.5 182 Z " /><path fill="rgb(202,246,69)" stroke="rgb(202,246,69)" stroke-width="1" opacity="1" d="M 112.5 183 L 115 183.5 L 112.5 184 L 112.5 183 Z " /><path fill="rgb(202,246,69)" stroke="rgb(202,246,69)" stroke-width="1" opacity="1" d="M 0 208 L 55.5 208 L 56 208.5 L 56 215.5 L 56.5 216 L 167.5 216 L 168.5 218 L 176 218 L 176.5 216 L 216 216 L 216 223.5 L 215.5 224 L 0 224 L 0 208 Z " /><path fill="rgb(207,248,59)" stroke="rgb(207,248,59)" stroke-width="1" opacity="1" d="M 163.5 41 L 164.5 43 L 163.5 41 Z " /><path fill="rgb(207,248,59)" stroke="rgb(207,248,59)" stroke-width="1" opacity="1" d="M 132.5 45 L 133 47.5 L 132 47.5 L 132.5 45 Z " /><path fill="rgb(207,248,59)" stroke="rgb(207,248,59)" stroke-width="1" opacity="1" d="M 163.5 48 L 164 50.5 L 163 50.5 L 163.5 48 Z " /><path fill="rgb(207,248,59)" stroke="rgb(207,248,59)" stroke-width="1" opacity="1" d="M 83.5 53 L 84 55.5 L 83 55.5 L 83.5 53 Z " /><path fill="rgb(207,248,59)" stroke="rgb(207,248,59)" stroke-width="1" opacity="1" d="M 131.5 56 L 132 58.5 L 131 58.5 L 131.5 56 Z " /><path fill="rgb(207,248,59)" stroke="rgb(207,248,59)" stroke-width="1" opacity="1" d="M 129.5 68 L 130 71.5 L 129 71.5 L 129.5 68 Z " /><path fill="rgb(207,248,59)" stroke="rgb(207,248,59)" stroke-width="1" opacity="1" d="M 121.5 98 L 120.5 100 L 121.5 98 Z " /><path fill="rgb(207,248,59)" stroke="rgb(207,248,59)" stroke-width="1" opacity="1" d="M 117.5 100 L 116.5 102 L 117.5 100 Z " /><path fill="rgb(207,248,59)" stroke="rgb(207,248,59)" stroke-width="1" opacity="1" d="M 75.5 103 L 75.5 106 Q 72.5 104.5 75.5 103 Z " /><path fill="rgb(207,248,59)" stroke="rgb(207,248,59)" stroke-width="1" opacity="1" d="M 107.5 106 L 109 108.5 L 107.5 109 Q 104.5 107.5 107.5 106 Z " /><path fill="rgb(207,248,59)" stroke="rgb(207,248,59)" stroke-width="1" opacity="1" d="M 103.5 108 L 106 109.5 Q 104.5 112.5 103 109.5 L 103.5 108 Z " /><path fill="rgb(207,248,59)" stroke="rgb(207,248,59)" stroke-width="1" opacity="1" d="M 119.5 125 L 120 127 L 118 126.5 L 119.5 125 Z " /><path fill="rgb(207,248,59)" stroke="rgb(207,248,59)" stroke-width="1" opacity="1" d="M 115 128 L 117 128.5 L 115 129.5 L 115 128 Z " /><path fill="rgb(207,248,59)" stroke="rgb(207,248,59)" stroke-width="1" opacity="1" d="M 148.5 128 L 149 131.5 L 148 131.5 L 148.5 128 Z " /><path fill="rgb(207,248,59)" stroke="rgb(207,248,59)" stroke-width="1" opacity="1" d="M 111.5 132 L 112.5 134 L 110.5 134 L 109 133.5 L 111.5 132 Z " /><path fill="rgb(207,248,59)" stroke="rgb(207,248,59)" stroke-width="1" opacity="1" d="M 68.5 133 L 69 135.5 L 68 135.5 L 68.5 133 Z " /><path fill="rgb(207,248,59)" stroke="rgb(207,248,59)" stroke-width="1" opacity="1" d="M 117.5 134 L 116.5 136 L 115 135.5 L 117.5 134 Z " /><path fill="rgb(207,248,59)" stroke="rgb(207,248,59)" stroke-width="1" opacity="1" d="M 150.5 135 L 150 136.5 L 149.5 138 L 149 136.5 L 150.5 135 Z " /><path fill="rgb(207,248,59)" stroke="rgb(207,248,59)" stroke-width="1" opacity="1" d="M 99.5 141 L 100.5 143 L 99.5 141 Z " /><path fill="rgb(207,248,59)" stroke="rgb(207,248,59)" stroke-width="1" opacity="1" d="M 116.5 141 L 117 145.5 L 116 145.5 L 116.5 141 Z " /><path fill="rgb(207,248,59)" stroke="rgb(207,248,59)" stroke-width="1" opacity="1" d="M 112.5 143 L 114 146.5 L 113 146.5 L 112.5 143 Z " /><path fill="rgb(207,248,59)" stroke="rgb(207,248,59)" stroke-width="1" opacity="1" d="M 67.5 144 L 68 147.5 L 67 147.5 L 67.5 144 Z " /><path fill="rgb(207,248,59)" stroke="rgb(207,248,59)" stroke-width="1" opacity="1" d="M 114.5 152 L 115.5 154 Q 112.7 154.7 114.5 152 Z " /><path fill="rgb(207,248,59)" stroke="rgb(207,248,59)" stroke-width="1" opacity="1" d="M 112.5 153 L 113 155.5 L 112 155.5 L 112.5 153 Z " /><path fill="rgb(207,248,59)" stroke="rgb(207,248,59)" stroke-width="1" opacity="1" d="M 143.5 154 L 144 156.5 L 143 156.5 L 143.5 154 Z " /><path fill="rgb(207,248,59)" stroke="rgb(207,248,59)" stroke-width="1" opacity="1" d="M 94.5 156 L 95 159.5 L 94 159.5 L 94.5 156 Z " /><path fill="rgb(207,248,59)" stroke="rgb(207,248,59)" stroke-width="1" opacity="1" d="M 93.5 164 L 94 168 L 92 167.5 L 93.5 164 Z " /><path fill="rgb(207,248,59)" stroke="rgb(207,248,59)" stroke-width="1" opacity="1" d="M 143.5 165 L 144 167.5 L 143 167.5 L 143.5 165 Z " /><path fill="rgb(207,248,59)" stroke="rgb(207,248,59)" stroke-width="1" opacity="1" d="M 95.5 168 L 96 170.5 L 95 170.5 L 95.5 168 Z " /><path fill="rgb(207,248,59)" stroke="rgb(207,248,59)" stroke-width="1" opacity="1" d="M 112.5 168 L 113 170.5 L 112 170.5 L 112.5 168 Z " /><path fill="rgb(207,248,59)" stroke="rgb(207,248,59)" stroke-width="1" opacity="1" d="M 94.5 172 L 95 175.5 L 94 175.5 L 94.5 172 Z " /><path fill="rgb(207,248,59)" stroke="rgb(207,248,59)" stroke-width="1" opacity="1" d="M 91.5 173 L 92 176.5 L 91 176.5 L 91.5 173 Z " /><path fill="rgb(207,248,59)" stroke="rgb(207,248,59)" stroke-width="1" opacity="1" d="M 140.5 173 L 141 175.5 L 139 176.5 L 140.5 173 Z " /><path fill="rgb(207,248,59)" stroke="rgb(207,248,59)" stroke-width="1" opacity="1" d="M 140.5 178 L 142 180.5 L 140 181.5 L 142 182.5 L 140.5 183 L 138 181.5 L 140.5 178 Z " /><path fill="rgb(207,248,59)" stroke="rgb(207,248,59)" stroke-width="1" opacity="1" d="M 56.5 179 L 57 181.5 L 56 181.5 L 56.5 179 Z " /><path fill="rgb(207,248,59)" stroke="rgb(207,248,59)" stroke-width="1" opacity="1" d="M 90.5 180 L 91 183 Q 88.3 184.1 89 181.5 L 90.5 180 Z " /><path fill="rgb(158,193,86)" stroke="rgb(158,193,86)" stroke-width="1" opacity="1" d="M 154.5 83 L 155 85.5 L 154 85.5 L 154.5 83 Z " /><path fill="rgb(158,193,86)" stroke="rgb(158,193,86)" stroke-width="1" opacity="1" d="M 126.5 96 L 125.5 98 L 126.5 96 Z " /><path fill="rgb(158,193,86)" stroke="rgb(158,193,86)" stroke-width="1" opacity="1" d="M 120.5 101 L 119.5 103 L 120.5 101 Z " /><path fill="rgb(158,193,86)" stroke="rgb(158,193,86)" stroke-width="1" opacity="1" d="M 105.5 113 L 103.5 116 L 105.5 113 Z " /><path fill="rgb(158,193,86)" stroke="rgb(158,193,86)" stroke-width="1" opacity="1" d="M 115.5 126 L 113.5 129 L 115.5 126 Z " /><path fill="rgb(158,193,86)" stroke="rgb(158,193,86)" stroke-width="1" opacity="1" d="M 110.5 130 L 109.5 132 L 110.5 130 Z " /><path fill="rgb(158,193,86)" stroke="rgb(158,193,86)" stroke-width="1" opacity="1" d="M 104.5 135 L 103.5 137 L 104.5 135 Z " /><path fill="rgb(158,193,86)" stroke="rgb(158,193,86)" stroke-width="1" opacity="1" d="M 139.5 168 L 140 170.5 L 139 170.5 L 139.5 168 Z " /><path fill="rgb(158,193,86)" stroke="rgb(158,193,86)" stroke-width="1" opacity="1" d="M 89.5 177 L 90 179.5 L 88 180.5 L 89.5 177 Z " /><path fill="rgb(204,247,71)" stroke="rgb(204,247,71)" stroke-width="1" opacity="1" d="M 70.5 130 L 71 131.5 L 69.5 134 L 69 132.5 L 70.5 130 Z " /><path fill="rgb(204,247,71)" stroke="rgb(204,247,71)" stroke-width="1" opacity="1" d="M 67.5 136 L 66.5 138 L 67.5 136 Z " /><path fill="rgb(204,247,71)" stroke="rgb(204,247,71)" stroke-width="1" opacity="1" d="M 147.5 139 L 148 141 L 146 140.5 L 147.5 139 Z " /><path fill="rgb(204,247,71)" stroke="rgb(204,247,71)" stroke-width="1" opacity="1" d="M 100.5 140 L 101.5 142 L 100.5 140 Z " /><path fill="rgb(204,247,71)" stroke="rgb(204,247,71)" stroke-width="1" opacity="1" d="M 0 152 L 39.5 152 L 40 152.5 L 40 160 L 63.5 160 L 64 162.5 L 66 162.5 L 64 164.5 L 64 176 L 56 177.5 L 59 178.5 L 56 179 Q 53.9 184.2 58.5 183 L 61.5 184 L 94.5 184 L 96 182.5 L 95 180.5 L 96 177.5 L 96 168 L 112 168 L 113 171.5 L 112 176 L 104 176 L 104 184 L 115.5 184 L 117 182.5 L 117.5 181 L 118 184 L 144 184 L 144 170 L 142 169.5 L 143.5 168 L 152 168 L 152 176 L 191.5 176 L 192 176.5 L 192 184 L 200 184 L 200 176 L 208 176 L 208 184 L 223.5 184 L 224 184.5 L 224 224 L 216 224 L 216 216.5 L 215.5 216 L 176 216 L 175.5 218 L 168 218 L 167.5 216 L 56.5 216 L 56 215.5 L 56 208.5 L 55.5 208 L 0 208 L 0 152 Z " /><path fill="rgb(204,247,71)" stroke="rgb(204,247,71)" stroke-width="1" opacity="1" d="M 65.5 156 L 66 159.5 L 64 158.5 L 65.5 156 Z " /><path fill="rgb(204,247,71)" stroke="rgb(204,247,71)" stroke-width="1" opacity="1" d="M 142.5 161 L 143.5 163 L 142.5 161 Z " /><path fill="rgb(204,247,71)" stroke="rgb(204,247,71)" stroke-width="1" opacity="1" d="M 63.5 181 L 66 182.5 L 64.5 183 L 63.5 181 Z " /></svg>